<?xml version="1.0" encoding="UTF-8" standalone="no"?>
<!-- Created with Inkscape (http://www.inkscape.org/) -->

<svg
   version="1.1"
   id="svg2745"
   width="780"
   height="780"
   viewBox="0 0 780 780"
   sodipodi:docname="logo.svg"
   inkscape:version="1.2.2 (732a01da63, 2022-12-09)"
   xmlns:inkscape="http://www.inkscape.org/namespaces/inkscape"
   xmlns:sodipodi="http://sodipodi.sourceforge.net/DTD/sodipodi-0.dtd"
   xmlns="http://www.w3.org/2000/svg"
   xmlns:svg="http://www.w3.org/2000/svg">
  <defs
     id="defs2749" />
  <sodipodi:namedview
     id="namedview2747"
     pagecolor="#505050"
     bordercolor="#ffffff"
     borderopacity="1"
     inkscape:showpageshadow="0"
     inkscape:pageopacity="0"
     inkscape:pagecheckerboard="1"
     inkscape:deskcolor="#505050"
     showgrid="false"
     inkscape:zoom="1"
     inkscape:cx="356.5"
     inkscape:cy="389"
     inkscape:window-width="1920"
     inkscape:window-height="1094"
     inkscape:window-x="-11"
     inkscape:window-y="-11"
     inkscape:window-maximized="1"
     inkscape:current-layer="g2751" />
  <g
     inkscape:groupmode="layer"
     inkscape:label="Image"
     id="g2751">
    <g
       id="g3483"
       transform="translate(0.60129699,0.24264069)">
      <path
         style="fill:#fbfbfb;stroke-width:1.33333"
         d="M 0,390 V 0 H 390 780 V 390 780 H 390 0 Z m 304,359.21087 c 7.08621,-2.48091 15.43383,-8.6467 18.56452,-13.71227 4.60159,-7.44552 5.94136,-18.08631 3.50701,-27.85352 -1.70057,-6.82315 -3.07208,-9.19307 -7.65796,-13.23272 -4.7684,-4.20044 -6.84126,-5.05536 -14.15686,-5.8388 -6.6015,-0.70696 -9.60868,-0.42275 -13.0894,1.23709 -3.97146,1.89386 -9.81498,8.96735 -9.82899,11.89786 -0.0107,2.29054 4.24689,2.47685 6.66168,0.29149 6.44928,-5.83652 9.2832,3.5886 2.97557,9.89623 -5.08273,5.08272 -12.94922,6.4674 -17.5229,3.08442 -6.48448,-4.79633 -7.30266,-8.42294 -4.98739,-22.10709 2.55355,-15.09253 5.55707,-22.50815 17.36487,-42.87356 16.39988,-28.28557 17.37956,-44.52717 20.35537,-77.15655 1.91028,-20.94604 2.00493,-22.57326 -0.91089,-38.85942 -3.34773,-18.69857 -4.6889,-34.72939 -13.16064,-47.59544 -7.46659,-11.33948 -10.43671,-14.25259 -19.30738,-18.93667 -3.58969,-1.89552 -7.18969,-3.97032 -8,-4.61069 -0.8103,-0.64038 -4.64301,-1.96011 -8.51713,-2.93275 -9.39872,-2.35964 -18.49469,-0.13147 -22.03001,4.22949 -2.90654,3.5854 -1.67162,1.6546 0.3195,5.4141 0.77296,1.45944 1.00791,5.81078 1.66174,7.39919 10.80225,26.24304 -8.46219,33.5869 -55.75696,35.90889 -16.37035,0.80373 -17.60556,0.69309 -18.88156,-1.69112 -2.76511,-5.16667 -5.02466,-93.48431 -2.68256,-104.85168 0.7195,-3.49212 3.35693,-9.32766 5.86096,-12.96786 6.77345,-9.84688 5.75806,-14.03254 -2.4081,-9.9267 -7.70417,3.87357 -14.60006,13.98886 -17.7937,26.10084 -4.14734,15.7289 -3.5663,53.02448 2.06386,132.47637 2.25752,31.85783 2.83691,78.2724 0.96915,77.63937 -1.04032,-0.35258 -1.64189,-3.81294 -1.69668,-9.75949 -0.0467,-5.06727 -0.77224,-15.21321 -1.61232,-22.54655 C 143.46271,580 142.42475,561.7 141.99624,546.66667 c -0.42851,-15.03334 -3.38971,-41.00834 -4.136,-57.875 -1.64407,-37.15698 -3.29843,-71.03803 -1.6858,-73.08327 0.65052,-0.82504 0.84751,-5.35535 0.89605,-7.77568 0.1072,-5.3414 9.02074,-14.98279 15.48267,-21.19428 5.29833,-5.09299 6.11604,-8.07177 2.21579,-8.07177 -5.46695,0 -15.8748,11.7301 -28.82706,32.48934 -11.79352,18.90211 -19.77602,28.80545 -57.861009,37.60501 -20.873684,4.82288 -29.903326,7.08541 -36.53545,20.17468 -11.854053,23.39533 2.435033,44.93134 23.51735,34.72556 6.744618,-3.26501 11.17696,-10.03336 11.17696,-15.8718 0,-5.17029 -0.23038,-6.60637 -4.002143,-8.3249 -7.225617,-3.2922 -8.547337,-0.45539 -3.256283,5.17668 6.502146,6.92121 -6.050445,17.65921 -14.888671,13.99829 -4.699675,-1.94666 -6.865294,-5.38748 -6.923765,-15.08309 -0.0322,-5.33899 3.369079,-9.77566 7.237397,-13.76675 6.498762,-6.70502 20.676023,-9.40376 37.780084,-10.42089 22.27431,-1.32459 27.58304,-4.03163 39.22033,-19.99932 3.99299,-5.47884 8.06551,-12.60331 8.59172,-12.62384 0.52621,-0.0205 2.53707,9.38769 2.48247,16.17103 -0.0546,6.78333 0.30973,18.85833 1.11519,27.29166 0.80545,8.43334 0.88015,17.91635 0.47586,22.0995 l -0.2385,9.89116 -7.10966,-0.17816 c -9.21078,-0.23081 -18.76146,1.12766 -22.52499,8.90208 -4.1202,8.51118 -3.76831,15.95089 1.08832,23.00976 6.40753,9.31302 13.00076,9.62197 8.60463,0.4032 -5.24085,-10.99004 1.45326,-15.22098 17.1083,-10.81315 3.77553,1.06305 4.0474,5.89395 -0.29167,5.89395 -8.0829,0 -13.56845,6.38988 -7.99303,11.96529 3.52107,3.52108 5.68198,2.1288 4.56799,-2.94315 -0.82277,-3.74605 -0.65517,-3.94909 2.92194,-3.53973 4.2792,0.48969 3.51344,-3.87077 7.07993,40.31473 1.9918,24.67647 1.919,22.98578 1.62576,37.75195 l -0.24425,12.29909 -4.11686,2.12891 c -9.11743,4.71481 -12.3285,24.36917 -5.21792,31.93804 3.94022,4.19416 14.10254,9.17053 16.69543,8.17555 2.97936,-1.1433 2.39459,-3.27231 -2.00169,-7.2877 -5.51259,-5.03497 -8.49443,-11.81057 -4.40355,-14.67594 1.70295,-1.19279 7.00708,-3.16871 9.49529,-3.16871 3.59864,0 6.33494,0.85093 10.79586,4.74381 l 4.14684,3.6188 3.8658,-7.4951 c 2.68933,-5.21413 5.24674,-3.80854 9.96092,-6.16048 3.62732,-1.8097 5.62732,-2.91536 6.58333,-2.91536 2.49208,0 4.06788,-0.45612 1.02932,-4.10342 -2.00577,-2.40758 -7.5498,-1.81813 -10.80155,-3.03385 -3.22153,-1.20442 -5.92321,-4.15656 -8.34414,-7.62568 -0.53878,-0.77205 -0.98878,-7.53261 -1,-15.02348 -0.0229,-15.29176 -0.45526,-14.60508 11.71825,-18.61211 13.44568,-4.42577 77.15053,-2.89184 95.59467,2.3018 7.50414,2.11308 23.65686,8.69959 23.65686,11.54842 0,2.20824 -11.40255,29.42998 -15.83726,38.00576 -10.89284,7.4737 -10.83158,13.65453 -15.82581,23.48572 -1.01153,2.00209 -8.0713,4.52605 -8.77447,4.96064 -3.39063,2.09552 -12.3693,16.28561 -15.77075,24.92445 -7.89456,20.0502 -6.35675,34.79479 4.67624,44.83569 6.38669,5.8124 16.02833,11.31567 25.20852,14.38851 6.2938,2.10671 26.84336,1.49732 34,-1.00825 z M 282.76256,588.28691 c -9.01156,-4.61652 -20.18936,-7.04544 -47.17923,-9.40464 -15.22625,-1.33095 -46.94438,-0.40402 -56.9382,2.2049 -11.98386,3.12843 -18.44824,2.77182 -15.9368,-7.71809 l 2.625,-10.96424 L 176,562.01887 c 9.78226,-0.35397 38.96848,-3.13203 54.51379,-6.88766 13.3625,-3.22828 42.6027,-14.87088 52.5926,-22.49873 3.43884,-2.62576 6.80634,-4.43177 7.48332,-4.01337 0.67698,0.4184 3.76141,4.55381 4.69366,8.75769 2.04589,9.22572 2.07463,53.82722 0.13084,55.56924 -0.81331,0.72888 -7.36518,-1.95093 -12.65165,-4.65913 z M 165.73707,555.74196 c -0.75959,-0.95808 -1.78906,-7.37557 -2.28768,-14.26109 -0.49863,-6.88552 -1.02872,-13.18552 -1.17799,-14 -0.17948,-0.97931 1.20075,-7.20678 6.49116,-6.99647 8.36299,0.33245 41.17539,2.95353 50.85109,0.78576 11.87135,-2.65968 27.22512,-13.98691 31.6778,-23.37024 1.94438,-4.09744 2.07103,-6.01869 0.85275,-12.93499 -0.78693,-4.46753 -1.15469,-8.39889 -0.81723,-8.73634 0.33747,-0.33747 3.29304,0.40972 6.56794,1.66041 8.83936,3.37577 15.63645,11.1022 23.57338,26.79641 l 9.06327,13.96667 -5.72412,5.47816 c -7.17401,6.86575 -37.42087,23.77809 -56.64077,28.42349 -22.64998,5.47446 -59.67012,6.66874 -62.4296,3.18823 z m 288.06909,182.48055 c -0.94628,-11.19443 0.47316,-17.00446 6.48935,-26.56214 3.35701,-5.33314 5.77428,-7.22349 15.22598,-11.907 10.6637,-5.28406 11.86308,-5.5721 23.56931,-5.66037 11.49104,-0.0867 12.9502,0.219 21.35319,4.4728 4.96062,2.5112 9.34741,5.09668 9.74842,5.74553 0.40102,0.64884 -1.68021,6.13316 -4.62493,12.18736 -5.76469,11.85195 -5.72839,14.01833 -4.32639,18.43564 1.19833,3.77563 1.26654,5.80698 6.79921,0.94925 2.588,-2.2723 5.23719,-4.66258 8.26376,-5.95991 5.3441,-2.29075 6.42963,-4.73042 7.87268,-13.15488 2.05632,-12.00479 7.4848,-21.49751 16.29509,-31.01368 6.03061,-6.51378 10.04279,-10.53296 21.16136,-15.90912 10.15883,-4.91211 14.2017,-6.28043 18.60219,-6.28043 8.41895,0 11.88855,0.45755 10.36635,-13.63603 C 609.89307,643.36829 608.94044,633.5 608.48479,628 l -0.82847,-10 12.1776,-2.01857 c 13.34469,-2.21203 15.85247,2.68617 24.02708,11.32962 5.89733,6.23556 6.80567,7.922 6.80567,12.63563 0,3.50531 -1.18534,7.31733 -3.33334,10.71999 -4.27252,6.7681 -4.44296,11.01433 -0.41848,10.42606 1.85048,-0.27048 5.38034,-3.92152 9.66667,-9.99853 3.71349,-5.26487 11.19932,-15.46487 16.63516,-22.66667 5.43583,-7.20181 11.60351,-15.4942 13.70595,-18.42753 2.10244,-2.93333 5.55329,-10.46312 9.19634,-15.51063 8.3512,-11.57074 9.47516,-14.1188 8.31304,-28.55716 -0.49917,-6.20185 -0.20768,-9.63664 -0.57444,-10.23008 -1.22717,-1.9856 -3.39924,5.5413 -3.39924,9.06042 0,4.20493 -4.77906,9.98297 -12.24064,19.35534 -3.00722,3.77734 -9.16557,11.25234 -14.60186,18.29167 -5.4363,7.03932 -7.9885,13.40818 -11.06579,14.17377 -3.06464,0.76244 -7.00431,-1.90656 -9.53759,-3.62569 -2.53328,-1.71913 -7.26911,-2.94639 -11.22588,-5.22387 l -10.6199,-2.97316 3.5408,-10.60946 -2.8342,-11.35948 23.22066,-19.875 c 12.49176,-10.69194 24.30683,-21.875 26.2455,-23.70834 3.05885,-2.89266 18.56385,-16.33966 20.14826,-17.49089 0.58387,-0.42424 -1.17818,-7.19771 -2.03558,-15.93016 -0.51539,-5.24805 -1.40831,-10.32895 -3.17932,-10.32895 -0.60046,0 -3.57934,-3.0067 -5.7031,-5.00101 -2.12374,-1.99431 -4.11136,-5.55001 -9.61136,-9.88767 -5.5,-4.33765 -10.21766,-8.59224 -11.40038,-10.06574 -2.90307,-3.61686 -5.45462,-0.24631 -10.0658,9.51329 -6.0915,12.89265 -19.30454,24.22724 -36.34188,31.42911 l -8.72472,6.59536 -1.6995,12.625 c -0.0411,5.5 -1.39234,22.70456 -0.55857,43.12125 1.50195,36.77763 6.94098,37.99558 3.37903,39.50821 l -7.38695,3.13696 -2.74643,-2.17488 c -1.5641,-1.2386 -2.92662,-5.7751 -3.29966,-7.57817 -0.68106,-3.29183 -6.71515,-6.89092 -30.73842,-22.1602 -5.68333,-3.61235 -9.08449,-3.12983 -9.95833,-8.53897 -0.76375,-4.72768 3.27231,-8.78578 5.8968,-13.14264 7.21205,-11.97255 13.42404,-25.32424 16.94641,-34.09456 1.73174,-4.31182 5.47386,-15.18682 9.53806,-21.875 6.7758,-11.15047 7.93192,-10.56043 8.40072,-19.11867 0.58476,-10.67531 2.6864,-12.83665 -5.77835,-17.31981 -4.43259,-2.34762 -4.5352,-4.01174 -6.46955,-2.07738 -1.16458,1.16459 -1.99097,5.196 -1.8364,7.27814 0.63432,8.54516 -2.73189,11.90762 -4.86745,15.1669 -2.59281,3.95714 -9.17001,6.61643 -14.185,5.35775 -3.80947,-0.95611 -13.18696,-4.94509 -13.18696,-7.10507 0,-0.75985 -3.77669,-6.25729 -5.03153,-7.17485 -1.67444,-1.22437 -2.73044,-3.662 -3.12188,-10.58894 -0.30989,-5.48442 -1.25566,-7.56305 -2.2576,-8.39457 -2.86633,-2.37885 -6.36022,0.68181 -11.50472,6.52749 -6.04384,6.86758 -14.57646,16.64877 -31.53302,33.94895 l -12.42474,12.67652 1.4413,8.48003 c 0.74184,4.36472 1.93431,14.44781 2.32085,19.58114 1.49585,19.866 3.46436,28.5085 5.49485,33.30971 1.57999,3.73597 5.27308,8.30558 14.3221,14.7943 13.94443,9.99901 23.12768,16.23925 23.12768,18.15176 0,1.82328 -19.88572,35.69556 -32.38538,55.2421 -3.21655,5.02994 -7.00782,10.6197 -10.81608,11.33414 -6.41936,1.20426 -17.63374,5.78656 -22.9325,9.47526 -10.26241,7.14416 -26.61282,16.82392 -29.34477,22.46738 -4.98593,10.29956 -2.14708,26.75694 6.16207,35.72266 5.78494,6.24206 7.34993,4.6852 6.41449,-6.3811 z M 537.625,678.64347 c -4.69463,-1.90748 -7.40656,-1.77883 -17.5,-2.24322 -8.58937,-0.39518 -16.08333,3.03612 -15.58333,-2.04294 0.0745,-0.75726 3.23428,-9.25884 6.42341,-14.45374 3.18912,-5.19488 12.83116,-20.66081 21.42676,-35.13262 8.59559,-14.4718 12.62404,-26.61874 15.97989,-29.11818 1.46688,-1.09253 24.41698,11.56786 25.45556,14.25268 0.47224,1.22075 -0.50047,15.91805 1.28042,29.38622 l 3.04678,23.04166 -5.30641,5.4844 c -1.47666,1.5262 -7.62293,2.92267 -11.82924,6.20834 -4.20631,3.28566 -7.45631,8.66256 -8.75,8.58753 -1.29369,-0.0751 -10.97717,-2.48032 -14.64384,-3.97013 z m -1.77487,-98.14664 c -5.11764,-3.72957 -7.27105,-8.82411 -7.37809,-8.94454 -0.10707,-0.1204 -0.86605,-11.01896 -1.68667,-24.21896 -0.82061,-13.2 -2.19144,-27.7416 -3.04626,-32.31465 -0.85483,-4.57307 -1.13958,-8.72932 -0.63276,-9.23613 0.5068,-0.50682 2.56521,0.58825 4.57422,2.43348 5.1362,4.71745 12.04276,9.35718 18.30239,12.29533 6.43725,3.02151 22.47702,0.75006 28.43028,-1.32526 3.34584,-1.16636 7.80397,1.93258 7.80397,3.51946 0,2.24982 -12.10248,29.52726 -19.63075,41.87914 -2.82771,4.63953 -6.73253,12.34618 -8.46129,15.82951 -1.72876,3.48333 -1.3522,4.73964 -5.87995,6.86366 -4.47346,2.09856 -7.27746,-3.05146 -12.39509,-6.78104 z m 93.81695,-20.95516 c -0.14203,-14.27194 -2.30569,-25.5106 -3.53919,-29.25136 -1.40712,-4.26734 0.95135,-11.00143 12.41,-16.80362 4.65002,-2.35457 8.92364,-8.42425 12.1621,-8.81981 l 8.20753,-3.53876 6.92124,5.87036 c 3.31813,2.81433 8.95218,6.76557 12.96219,10.45697 l 7.29093,6.71163 -3.66593,7.53071 c -1.16191,2.38685 -10.31647,8.31654 -17.681,14.01313 -7.36454,5.69659 -15.0329,12.0608 -19.33246,15.82325 -4.29957,3.76246 -11.87404,8.96583 -12.85994,8.96583 -1.30112,0 -2.81528,-4.90957 -2.87547,-10.95833 z M 353.60176,733.53014 c 3.53811,-0.41628 4.26636,0.0725 6.61909,0.96702 6.28088,2.388 12.49174,-3.51405 9.88917,-7.7251 -1.15544,-1.86956 5.96443,2.3584 8.66163,4.71898 3.12866,2.73821 4.24647,2.29564 7.7137,-3.05407 2.55324,-3.9395 3.00133,-5.96264 2.35884,-10.65017 -0.47052,-3.43283 -0.26118,-5.7868 0.51465,-5.7868 0.71931,0 1.30783,2.10587 1.30783,4.67972 0,3.20089 0.91461,5.41293 2.89426,7 1.59186,1.27615 4.2611,3.72471 5.93166,5.44121 3.59137,3.69019 4.7151,3.21392 8.13449,-3.44761 2.91513,-5.67915 -0.30096,-11.39024 -2.53292,-14.30706 -0.58471,-0.76411 -2.45931,-4.13917 -4.92626,-6.41094 -3.94846,-3.63607 -6.60141,-6.64967 -5.25856,-1.51459 0.3626,1.38659 -0.33786,3.75248 -1.5566,5.25754 -2.20544,2.7236 -4.54003,2.18384 -10.05316,-2.5352 -6.52448,-5.58472 -7.39547,-5.93118 -7.39547,-1.39449 0,1.74354 -2.13744,3.65183 -3.23744,4.56475 -1.36736,1.13482 -2,4.16719 -2,9.58644 0,7.31983 -0.20414,7.8618 -2.66667,7.08023 -1.89243,-0.60063 -2.66667,-0.2396 -2.66667,1.24348 0,1.49952 -1.22985,3.41568 -4.57827,3.41568 -2.56667,0 -4.75506,-1.99641 -4.75506,-2.81603 0,-0.8196 2.02806,-3.89711 4.44945,-7.26546 5.19818,-7.23111 5.32346,-10.93476 0.67933,-15.92418 -3.44494,-3.70108 -5.22493,-3.17292 -7.97977,-2.49248 -5.71707,1.4121 -9.51007,5.43481 -9.51007,10.48994 0,5.54843 1.24503,5.6714 3.24942,0.39944 0.76623,-2.01532 1.55328,-5.33891 2.72127,-6.62952 1.98265,-2.1908 4.62993,-1.97387 7.2255,-0.30584 5.03857,3.238 1.23492,10.3736 -4.43363,18.10383 -3.50729,4.78293 -3.43673,6.53009 -4.58578,9.23419 4.49164,-0.44001 3.89043,1.36208 5.78604,0.0771 z m 22.96155,-11.3187 c -1.2152,-3.16675 -0.0384,-10.6262 1.77002,-11.21987 1.16838,-0.38354 1.66667,1.25644 1.66667,5.4853 0,6.03902 -2.02392,9.4162 -3.43669,5.73457 z m 22.21196,-1.20598 c -0.55,-0.5585 -2.67938,-3.68451 -2.67938,-5.5423 0,-2.42761 2.35137,-4.73873 3.39077,-3.69933 0.79542,0.79543 2.39447,4.27499 2.14905,5.89585 -0.24542,1.62087 -2.31044,3.90429 -2.86044,3.34578 z m 22.6703,13.83363 c 1.6622,-0.18914 1.5269,-1.61248 2.84728,-4.83334 0.54698,-1.39458 1.61213,-5.28176 2.063,-6.52576 1.67835,-4.50752 -0.0141,-1.43832 2.75465,-6.68832 1.9783,-11.68446 -2.45389,-4.42224 4.71012,-14.88066 -1.08732,-5.79688 3.82838,-7.38118 -9.44954,-6.4067 -6.43743,0.47245 -12.45441,1.45073 -13.37108,2.17394 -2.37721,1.87552 -2.18033,10.32175 0.2406,10.32175 1.049,0 2.099,-1.35 2.33333,-3 0.36359,-2.56011 1.35475,-3.05959 6.7594,-3.40639 4.22475,-0.27109 6.33334,0.12027 6.33334,1.17534 0,0.86993 -2.76115,7.00761 -6.1359,13.63928 -6.05816,11.90485 -5.40015,14.21612 -3.95906,16.74133 1.42861,2.50333 3.00299,1.90241 4.87386,1.68953 z M 373.57471,669.5 c 4.15332,-5.72625 4.8781,-6.97115 17.79686,-20.55089 6.94178,-7.29694 8.70063,-7.21134 7.48398,-12.29167 -0.68482,-2.85951 0.54248,-20.92411 -0.17547,-39.99077 -1.36967,-36.37446 -6.3082,-50.6794 -7.48187,-62.21563 -0.66122,-6.49933 -4.43796,-11.38408 -9.92554,-14.60001 -6.94683,-4.07112 -10.27715,-9.97002 -17.17878,-19.2677 -7.1192,-9.59076 -10.28484,-10.125 -12.90646,-10.125 -3.20586,0 -8.147,3.2341 -8.14078,6.02056 0.003,1.2262 0.73632,4.99916 2.24128,7.46771 l 2.86131,3.86327 -7.96736,8.59506 c -4.21417,4.54618 -6.69736,4.46674 -10.18732,8.59507 -2.94989,3.48947 -4.76704,2.95869 -6.96347,6.42211 -3.90833,6.16281 -3.72918,7.58221 -3.07233,20.66666 0.36913,7.35326 1.74275,20.51956 2.13579,32.61956 0.39305,12.1 0.55805,26.55 0.97778,32.41667 0.89074,12.45003 1.42723,15.30671 -7.7881,18.68525 -10.383,3.80664 -10.29038,8.15178 0.1263,5.34684 12.14403,-3.27004 27.31226,5.45007 41.05334,21.00524 4.97793,5.63511 7.44417,8.11011 7.92497,9.625 1.38941,4.37767 4.73759,3.8456 9.18587,-2.28733 z m -1.24814,-26.76356 c -4.1502,-3.462 -22.91234,-10.45699 -30.88462,-11.51455 l -6.5775,-0.87253 -0.71708,-9.50801 c -0.3944,-5.22942 -1.04698,-17.90802 -1.45021,-28.17468 -0.93807,-23.88415 -1.90269,-41.02622 -2.74967,-48.8631 l -0.66968,-6.19644 10.27767,-9.47022 c 5.65271,-5.20864 10.95237,-9.47024 11.77701,-9.47024 0.82464,0 2.8289,1.79829 4.45388,3.99621 1.62499,2.19792 7.38683,7.33223 12.80407,11.40957 l 9.84955,7.41336 0.74397,10.92376 c 0.40919,6.00807 1.11812,22.62376 1.5754,36.92376 0.45729,14.3 1.25115,30.39819 1.76412,35.77375 0.89369,9.36512 0.77201,9.99223 -2.91075,15 -2.11388,2.87444 -3.94152,5.20629 -4.06141,5.18189 -0.11987,-0.0244 -1.57103,-1.17304 -3.22475,-2.55253 z m 78.07894,19.34109 c 9.46818,-5.06424 17.12929,-9.0243 21.67345,-16.46153 l 4.30796,-7.05068 3.24729,3.05068 c 4.15548,3.90387 13.22008,2.16164 17.20779,-1.44719 7.57615,-6.8563 8.50814,-14.87789 2.18456,-22.39305 -5.05796,-6.01102 -6.488,-7.25061 -12.71688,-2.24494 -2.89205,2.32412 -3.26128,3.6789 -2.8731,4.30698 0.38818,0.62809 0.41873,1.49553 3.30878,1.49553 4.25152,0 5.25464,0.47791 5.25464,2.50342 0,3.77898 -3.06352,7.80044 -7.5432,6.81655 -3.24708,-0.71319 -5.56351,-2.85227 -6.25753,-6.93364 -2.67247,-15.71629 -4.94833,-41.24358 -5.64559,-69.50111 -0.77572,-31.43685 -1.35098,-33.1622 1.3823,-35.63579 3.96656,-3.58968 7.01619,-7.25462 5.50994,-8.76087 -0.76174,-0.76173 -3.37638,-0.71934 -5.80712,0.67572 -4.7713,2.73834 -7.59533,1.43532 -12.55844,-3.16433 -2.33022,-2.15957 -4.26985,-5.29915 -4.26985,-7.90553 0,-4.87778 -0.754,-4.72802 -3.75819,-2.05972 -1.23713,1.09882 -2.9389,2.37249 -5.61824,3.47858 -9.7328,4.01789 -7.02159,8.00304 4.72526,16.92038 l 7.04463,5.34776 1.69374,13.71346 c 4.27586,34.61971 5.0362,61.75226 5.08682,76.13012 0.0533,15.1326 -2.97358,17.4949 -5.75812,21.9657 -5.23629,8.40726 -20.00594,14.09518 -26.95017,10.37874 -5.24709,-2.80816 -8.99281,-15.84102 -10.14623,-35.30277 -1.48422,-25.04356 -6.0279,-81.19037 -5.60224,-82.46295 0.24446,-0.7308 2.64599,-3.95372 3.96175,-3.95372 1.31576,0 2.50017,-0.008 3.39591,-1.08734 1.3111,-1.5798 0.30954,-2.50811 -2.0404,-6.3104 -1.60546,-2.59767 -3.23044,-3.22996 -3.76387,-5.22454 -0.74012,-2.76738 -2.87595,-5.57113 -5.79465,-5.79546 -6.98504,-0.5369 -14.35064,-4.47235 -22.5519,-12.75028 -6.20761,-6.26564 -9.22252,-8.15408 -9.86865,-6.4703 -3.30601,8.61535 3.28729,11.66786 20.53505,26.55128 2.76431,2.38538 6.5986,11.58704 6.99287,13.42038 0.99352,4.6199 0.5206,48.95378 2.116,83.41666 1.62927,35.19408 2.98473,40.65159 12.35227,49.73374 3.63082,3.52022 8.79718,4.1822 10.41134,4.83216 5.18596,2.08818 11.28418,1.30613 17.13202,-1.8217 z m 21.11226,-200.67336 c 3.03479,-3.33896 10.96228,-9.37084 17.61667,-13.40417 6.65439,-4.03333 12.44784,-8.33929 12.87435,-9.5688 1.05245,-3.03399 -2.25567,-10.41341 -6.3663,-14.20128 l -3.36785,-3.10341 -5.44416,3.43674 c -5.72204,3.61218 -8.81991,4.2779 -10.11976,2.1747 -1.05083,-1.70027 -30.52321,-25.18116 -38.04405,-30.31002 -14.15555,-9.65338 -48.4772,-23.88424 -65.63319,-27.21361 -13.27192,-2.57561 -41.38231,-3.64289 -50.45232,-1.91556 -3.27107,0.62296 -5.19056,0.35383 -6.15873,-0.86353 -2.65826,-3.34242 -4.45519,-22.81279 -5.19248,-56.26228 -0.98026,-44.47232 -4.28266,-110.51382 -5.94211,-118.83038 C 303.60956,182.9316 301.34551,78.956633 302.64561,70 c 1.82499,-12.572616 7.1319,-20.399647 15.76274,-23.24808 6.91953,-2.283651 12.71861,0.145695 13.34688,5.591264 0.61118,5.297515 4.57376,4.727228 7.33116,-1.055087 4.56324,-9.569218 1.55872,-28.489512 -5.39238,-33.957245 -5.3347,-4.196275 -17.87938,-3.678685 -28.56972,1.178779 -9.83222,4.467552 -15.87401,10.302232 -19.74628,19.069376 -2.64926,5.99819 -2.93962,6.216293 -7.32776,5.504197 -9.17448,-1.488812 -16.11946,0.638945 -23.3736,7.161031 -8.2629,7.429056 -10.74904,12.735113 -9.40664,20.076136 1.81048,9.900768 10.52611,20.399798 15.38636,18.534744 2.59074,-0.994158 2.59719,-4.344596 0.0107,-5.337283 -1.26099,-0.483888 -2,-2.526365 -2,-5.527616 0,-6.415467 7.93607,-15.11848 14.66667,-16.084075 8.33093,-1.195182 8.56646,-0.558112 9.5049,25.709071 0.46607,13.044968 1.2278,27.918118 1.69275,33.051458 1.45707,16.0869 3.42183,65.1473 4.16499,104 C 289.08909,245.2 290.02216,272.8 290.7698,286 c 2.66627,47.07375 3.56945,73.43039 2.73953,79.94467 l -0.84229,6.61133 -17.68577,8.77165 c -15.42751,7.65163 -18.69743,9.87196 -25.60859,17.38867 -9.32355,10.14049 -13.19205,18.35907 -10.95388,23.27131 1.96699,4.31706 8.97329,6.25414 13.83036,3.82376 4.79087,-2.39727 5.50153,-3.83728 4.50783,-9.1342 -0.61294,-3.2672 -1.7879,-4.79872 -4.33215,-5.64682 -3.47388,-1.15796 -3.45239,-1.19441 4.35777,-7.39021 4.31688,-3.42457 10.64516,-7.74844 14.06286,-9.60859 8.76536,-4.7707 30.23441,-9.9176 45.1549,-10.82522 10.95248,-0.66626 14.29064,-0.31722 24.66667,2.57916 19.32919,5.39553 24.61549,7.3528 38,14.06952 26.81587,13.45693 34.67997,19.28766 60.44236,44.81408 13.32336,13.20134 24.82431,23.73321 25.55764,23.40417 0.73333,-0.32904 3.81633,-3.33015 6.85111,-6.66911 z M 57.144691,430.18681 c 7.742711,-4.51664 6.355011,-5.78658 6.355011,-13.77615 0,-8.5144 -5.455843,-12.15584 -15.296212,-9.13574 -2.70123,0.82904 -7.937051,-1.16485 -8.178195,-1.40598 -1.163298,-1.16331 5.667182,-8.69745 11.810638,-15.96203 18.94448,-22.4017 59.017057,-30.94803 98.691657,-21.04811 15.21161,3.79572 38.50218,17.69199 52.33018,31.22268 4.44472,4.34915 8.55199,7.61664 9.12728,7.26109 0.5753,-0.35554 1.4641,-2.87517 1.97511,-5.59916 1.47203,-7.84656 5.68165,-14.87029 16.48925,-27.51228 7.94791,-9.2969 13.29824,-13.93182 25.47256,-22.06656 8.47624,-5.66372 18.25315,-11.46773 21.72644,-12.89778 3.4733,-1.43007 6.56038,-3.23522 6.86016,-4.01143 0.2998,-0.77623 0.0635,-6.47623 -0.52513,-12.66667 -0.58863,-6.19045 -1.44827,-22.05536 -1.91031,-35.25536 -0.46205,-13.2 -1.10578,-26.1 -1.43052,-28.66666 -0.32474,-2.56667 -0.90853,-8.78426 -1.29732,-13.81686 -0.38878,-5.0326 -1.02416,-9.66354 -1.41194,-10.29098 -0.38778,-0.62744 -8.33142,-4.81314 -17.65254,-9.30154 -9.32112,-4.4884 -21.74748,-11.03625 -27.61414,-14.55077 C 226.8,207.19199 220.65,203.90483 219,203.40172 c -1.65,-0.50312 -3,-1.68597 -3,-2.62859 0,-2.0942 11.93467,-13.33273 23.99152,-22.5921 4.90411,-3.76623 11.42896,-9.75351 14.49967,-13.30504 5.00889,-5.79322 5.49533,-6.95886 4.72964,-11.33334 -1.2661,-7.23338 -3.32272,-9.85712 -23.15715,-29.54265 -20.50669,-20.35276 -35.56472,-32.290216 -44.60116,-35.358165 -6.05493,-2.055703 -6.23019,-2.033844 -10.63585,1.326526 -6.14515,4.687134 -22.73977,26.162379 -31.99891,38.296809 -4.19676,5.5 -12.94767,14.69549 -17.50192,19.46216 -4.55426,4.76666 -10.71718,11.59042 -14.11244,15.68473 l -5.38006,6.48774 0.30879,13.17509 c 0.26841,11.45221 1.16919,58.33923 1.92204,90.92511 0.35579,15.4 1.25161,34.81724 1.9907,43.14943 l 1.3438,15.14942 -6.366,8.36644 c -6.46515,8.49675 -12.888825,14.91645 -12.888825,12.25365 0,-0.77096 4.517755,-6.54531 7.770825,-10.02311 l 5.91468,-6.32327 -1.79984,-17.28628 c -0.35793,-9.50745 -0.0221,-24.83849 -0.65815,-34.06899 -0.63603,-9.23049 -3.08903,-21.5867 -3.07447,-27.89035 0.38845,-7.53362 -0.55383,-15.09134 -0.19715,-24.58306 C 106.22895,218.659 105.09703,205.45748 104.51828,194 l -1.72483,-23.28539 4.99021,-7.61192 c 5.38253,-8.21035 22.52818,-31.42853 38.83183,-51.0143 7.02009,-8.43333 12.67755,-14.811063 12.68017,-15.361063 0.0155,-3.273062 -3.42211,1.396078 -12.58495,11.638933 -5.74008,6.41667 -12.24739,13.80335 -17.8096,19.33165 -5.56222,5.5283 -15.73675,16.02024 -22.17795,22.77527 -10.835413,11.36334 -13.412475,12.00763 -17.855536,13.78448 l -5.967481,2.38649 -9.28118,14.606 C 68.247623,189.70314 59.687144,203 54.003029,214 c -5.684113,11 -11.39302,21.5 -12.686457,23.33333 -3.226369,4.5731 -10.649905,20.07294 -10.649905,22.23628 0,2.22615 1.918057,2.2763 3.712617,0.0971 0.754859,-0.91667 4.951487,-7.97753 9.325841,-15.69083 12.894714,-22.73721 22.647198,-37.08557 37.215274,-54.75305 9.611114,-11.65589 14.663908,-16.30375 16.494373,-15.17245 1.468072,0.90732 2.486421,15.37394 3.328388,47.283 0.41603,15.76666 1.23645,32.56666 1.82315,37.33333 0.58671,4.76667 3.03223,9.79228 2.94981,12.35634 -0.14699,4.57266 -2.63439,7.83549 -7.655458,7.4029 -9.368858,-0.80717 -17.058129,2.84066 -20.342893,11.0501 -2.403796,6.00767 -4.09117,9.88088 -1.872235,17.23515 2.145312,7.11025 3.209364,6.97163 4.107109,0.27844 0.850143,-6.33829 4.125933,-7.84673 10.144223,-10.3943 4.674778,-1.97887 12.218084,-1.28514 14.523124,1.49226 0.80277,0.96728 2.41528,5.30113 2.17895,7.36215 -0.36015,3.14093 -2.01194,4.96374 -5.62955,5.31286 -6.845936,0.66067 -11.582278,6.01784 -7.104225,10.4959 2.406756,2.40676 2.956512,2.31051 4.39471,-1.47224 0.955823,-2.514 2.895865,-1.98665 5.095825,-1.67418 2.49208,0.35395 3.86258,2.17843 4.20367,6.89457 0.38166,5.27705 -1.41797,6.53464 -10.464366,18.00633 -9.643403,12.22876 -9.838527,12.38283 -23.076987,18.2206 -24.646276,10.86829 -42.853518,29.96558 -47.227981,46.32119 -3.929468,14.69186 5.995698,29.81014 18.319327,27.1213 1.803248,-0.39344 2.94157,0.8155 6.732027,-1.39563 z M 208.3986,374.05445 c -11.83233,-8.77584 -30.67041,-16.4389 -51.49449,-19.41641 -10.30687,-1.47371 -11.57106,-5.73071 -11.68188,-9.84576 -0.0611,-2.26908 -0.26923,-5.58943 -0.46248,-7.37852 -0.21924,-2.02971 0.82305,-4.34132 2.7718,-6.14735 4.38798,-4.06665 18.46453,-10.65281 26.9798,-12.62337 14.69748,-3.4012 52.31552,0.87892 66.37906,7.55251 4.73411,2.24646 5.1575,3.27157 6.36244,15.40444 l 0.75478,7.6 -5.743,3.95128 c -3.15864,2.1732 -9.43982,7.9032 -13.95818,12.73333 -4.51834,4.83013 -8.38572,8.76305 -8.59416,8.73983 -0.20842,-0.0232 -9.48036,0.78978 -11.31369,-0.56998 z m -95.06527,-24.40717 c 0,-0.77804 3.9,-6.36471 8.66667,-12.4148 l 8.66667,-11.00019 -0.0293,-10.11614 c -0.0366,-12.63871 -3.94321,-81.3684 -4.83914,-96.61615 -0.36627,-6.23333 -0.90015,-19.54073 -1.3392,-32.93312 l -1.79826,-24.22479 13.72262,-16.5582 c 11.4376,-13.80102 25.58594,-22.82791 33.21972,-24.0667 6.13044,-0.99484 10.14073,4.98452 28.28001,20.96052 16.86951,14.85766 19.45021,19.03112 19.45021,31.45437 v 7.41144 l -15.66666,15.06441 c -18.70172,17.9828 -24.07131,22.53432 -38.98798,33.04808 -6.23994,4.39812 -11.23625,13.08351 -12.9394,15.19571 -4.02506,4.9918 -8.43647,5.11965 -9.96747,-0.21864 -1.29195,33.46489 -3.99594,-21.89321 -2.91545,25.56953 0.43963,18.21633 -0.4827,42.07992 -0.0604,54.64746 0.50835,15.12649 0.30135,23.13841 -0.61238,23.70313 -2.62691,1.62352 -22.85026,2.59183 -22.85026,1.09408 z m 31.50334,-29.37223 c -0.35974,-0.58204 -1.0779,-10.4849 -1.59591,-22.00636 l -0.94187,-20.94809 6.51723,2.91033 c 9.23384,4.12347 32.67539,5.01696 47.70592,1.81835 17.34852,-3.69189 32.03864,-8.55704 38.81659,-12.85548 3.46644,-2.19836 6.57134,-3.72827 6.89981,-3.3998 1.36436,1.36436 3.78117,50.68355 2.57899,52.62873 -0.54844,0.88739 -4.03899,-0.0507 -9.6424,-2.59141 -5.88208,-2.66705 -12.59062,-4.41859 -20.31224,-5.30329 -20.27366,-2.3229 -49.20947,1.22896 -61.73967,7.57849 -7.09201,3.5938 -7.36195,3.66444 -8.28645,2.16853 z m 20.13274,-43.13337 c -9.10914,-0.71967 -22.26804,-4.19817 -26.04166,-7.42245 2.26466,-14.66132 23.04144,-22.09097 28.01577,-25.90214 7.54773,-5.78689 17.02016,-13.6631 21.04983,-17.50269 4.02968,-3.83959 9.83196,-9.24005 12.89396,-12.00104 l 5.56726,-5.01996 17.26818,8.76687 17.26817,8.76686 0.66564,14.25311 c 0.36611,7.8392 1.90606,15.89144 1.26153,17.13764 -1.98488,3.83773 -20.85602,11.99413 -36.96604,16.03311 -18.12274,4.5436 -25.32665,4.1276 -40.98264,2.89069 z m 363.1884,108.8032 c 1.57346,-4.98278 -0.11189,-8.13608 1.61187,-16.2606 2.42276,-11.41901 1.21753,-16.933 -6.36015,-23.95943 -2.80412,-2.60012 -7.39505,-6.88733 -5.95925,-7.33321 1.0586,-0.32875 16.69308,-3.81732 23.89607,-6.22461 12.15284,-4.06158 18.16134,-2.13422 23.82882,-0.6184 13.23964,3.54106 22.7899,9.92972 32.2449,28.61804 1.94784,3.85 3.97133,6.76975 9.70168,14.625 5.28243,7.24123 7.08918,6.05864 8.66241,3.14333 2.21329,-4.1014 5.56189,-8.13887 11.09863,-18.96309 6.9353,-13.55843 14.57638,-23.35066 20.0539,-27.88339 2.14535,-1.77532 7.32946,-1.03613 12.01392,4.375 13.03803,15.06056 22.25772,26.85927 22.25772,35.45144 0,7.76447 5.2247,10.45585 6.64044,1.96661 1.91259,-11.46838 11.86007,-20.60818 26.72712,-35.98504 l 10.09078,-10.43678 v -33.56322 c 0,-18.45976 -0.45378,-40.7632 -1.0084,-49.5632 -0.55462,-8.8 -1.37391,-21.91376 -1.82063,-29.14169 l -0.81224,-13.14169 -8.17937,-8.30498 c -4.49864,-4.56773 -12.95694,-13.78873 -18.7962,-20.4911 -5.83926,-6.70238 -11.44082,-12.50234 -12.44792,-12.8888 -2.81099,-1.07868 -4.71911,0.42324 -21.01679,16.54262 l -15.15587,14.99007 -5.35726,-4.44888 c -2.94648,-2.44688 -5.36807,-4.87079 -5.38128,-5.38647 -0.0133,-0.51566 -4.1858,-4.51949 -9.2724,-8.89738 -7.28676,-6.27154 -9.90268,-7.79378 -12.33334,-7.17699 -2.61469,0.66349 -11.14009,7.61147 -26.16076,21.32031 -1.79282,1.63626 -3.90822,2.57421 -4.70086,2.08433 -6.93862,-4.28829 -17.53732,-15.14315 -19.26056,-19.72601 -0.82723,-2.2 -1.89342,-7.38611 -2.36931,-11.52467 -1.25552,-10.91857 1.76203,-19.91116 10.18865,-30.36316 11.39446,-14.13317 14.88804,-25.35476 12.03514,-38.657429 -2.93478,-13.684362 -7.3584,-20.362718 -18.59983,-28.080212 -3.82404,-2.625288 -5.95492,-3.02235 -15.16473,-2.825747 -9.59663,0.204859 -11.40552,0.675431 -17.3237,4.506645 -4.77982,3.094291 -8.05441,6.740166 -11.83526,13.1772 -6.79246,11.564392 -7.08847,18.23493 -1.13002,25.463573 2.2534,2.73376 5.28319,4.97046 6.73288,4.97046 3.82702,0 10.19731,-3.60338 11.85886,-6.708019 1.70129,-3.178886 0.49209,-5.774608 -2.20747,-4.738687 -2.57343,0.987512 -3.86024,-2.755191 -1.80057,-5.236937 1.0488,-1.263734 4.02668,-1.98302 8.20977,-1.98302 5.19143,0 7.24837,0.684356 9.83673,3.272726 6.16402,6.164012 3.81916,13.436517 -7.82729,24.276097 -10.48988,9.76315 -12.23451,13.572 -12.11584,26.45118 0.11587,12.57005 2.62907,19.88954 11.98181,34.89541 l 6.32454,10.14728 0.63177,19.68261 c 0.71764,22.3576 0.16819,26.05835 -4.05868,27.33656 -1.64831,0.49844 -7.5606,5.63843 -13.13847,11.4222 -13.73966,14.24688 -17.99336,13.87558 -14.4744,-1.26346 3.11886,-13.41771 5.10264,-17.59224 12.02702,-25.30883 10.32628,-11.50769 11.08637,-13.52963 10.13332,-26.95625 -1.01038,-14.23412 -4.91534,-23.59452 -13.4252,-32.18087 l -6.16988,-6.22533 0.18505,-9.108 c 0.23129,-11.38367 -2.14576,-17.30892 -9.17843,-22.8789 -7.38529,-5.84926 -14.18293,-8.49347 -19.35949,-7.53066 -7.0374,1.30893 -13.4752,-2.354 -19.38191,-11.02776 C 467.10972,92.216521 464.77979,90.213945 458,88.30728 c -12.0822,-3.397853 -13.83549,-3.250599 -23.50936,1.974475 -15.9374,8.608154 -24.30777,22.707375 -24.65899,41.536045 -0.16936,9.07977 -0.68857,11.63172 -2.7952,13.73835 -2.56073,2.56073 -2.62248,2.53393 -6.03158,-2.61758 -4.31036,-6.51338 -13.06404,-10.79541 -24.19352,-11.8347 -9.39475,-0.87729 -11.70734,-0.0137 -26.55583,9.91629 -11.31569,7.56744 -15.57176,12.67847 -20.26432,24.33504 -3.15328,7.83288 -3.59765,10.49792 -3.04176,18.24223 1.04788,14.59834 6.91341,22.8056 19.41269,27.16286 4.04924,1.41158 4.29691,1.86846 4.17596,7.70348 -0.0707,3.41159 -0.8207,9.48248 -1.66666,13.49087 -1.41502,6.70476 -1.88399,7.35796 -5.8604,8.16268 -7.943,1.60743 -18.22303,10.9888 -23.53742,21.47983 -4.4143,8.71421 -4.80633,10.4251 -4.7995,20.94608 0.012,18.98532 4.73212,22.92316 17.24256,29.42804 l 8,4.11973 -1.0475,11.55867 c -0.49009,5.40788 1.67582,10.28938 3.14807,13.07596 2.61409,4.94777 6.83533,5.84524 12.01261,7.60272 1.60727,0.5456 6.27447,1.97995 10.18918,5.06728 7.26338,5.72824 14.82785,7.98939 30.7559,2.37813 8.48469,-2.98905 21.88198,-10.81936 26.09836,-9.83173 12.0258,2.81689 11.447,8.88157 14.64434,13.08817 7.04046,9.26285 10.17648,7.89993 19.29648,8.03176 5.47149,0.0791 8.94429,4.07221 8.94429,5.68177 0,3.45911 3.75504,5.01587 9.22801,7.80798 4.26747,2.1771 7.3473,2.09122 18.12023,1.85764 12.09649,-0.26228 14.3986,1.9864 20.06353,5.34288 5.98395,3.54557 6.79163,9.82869 5.19871,12.40609 -0.97676,1.58044 3.69657,-0.82499 5.90369,-0.82499 0.88238,0 2.75054,-4.09494 3.43531,-6.26345 z m 66.80052,-54.50883 c -6.4488,-2.84183 -12.56485,-7.72132 -13.0006,-8.93596 -0.43574,-1.21464 -0.52849,-26.65842 -0.66444,-53.79176 -0.13594,-27.13333 -0.73402,-47.30189 -1.17628,-51.54122 l -0.0541,-15.08291 c 9.13745,-7.01563 18.30638,-16.4466 28.2306,-22.29253 1.0816,0 3.05151,4.61761 3.53514,35.41666 0.16122,10.26667 0.5847,33.81667 1.39942,53.25 0.81471,19.43334 2.26004,43.30834 2.29519,52.29167 0.0757,19.35984 4.13982,21.57286 -13.18991,13.93605 z m 79.09379,3.67027 c -3.89009,-1.88171 -8.61713,-3.99577 -11.57399,-4.39237 -3.79244,-0.50868 -11.2198,-3.92352 -12.0429,-5.90502 -1.01848,-2.4518 -4.19999,-69.07964 -5.03668,-102.34428 l -0.79643,-12.53533 c -0.11463,-1.80427 2.28265,-2.80726 10.37268,-12.298 11.10786,-13.03108 22.74729,-23.49428 23.55908,-23.04188 3.38817,1.88817 2.57764,14.36747 2.87937,26.78733 0.30172,12.41986 1.55251,26.73156 2.32119,33.33156 1.61101,13.8323 3.91657,104.3169 2.55081,104.36798 -2.62564,0.0982 -8.34305,-2.08827 -12.23313,-3.96999 z"
         id="path3489"
         sodipodi:nodetypes="cccccccccsssssscsssssssssssssssssssssssssssssssssssssssssssssscssssssssssscssssssscssssssssssccsssssssssscssssssssssssssssscssssssssssssssssssscssssssssssssssssscccssssssssssccsscssssssssssssssssssscssssssssssssssssssscssssssssssssssssssssscsscssssssssssssssssssssssssssssssssssssccssssssssssssccssssssssssssssssscscssssssssssssscssscsssscssssssscssssssssssssssssssscssssssssssssssssssscssscssssssssssssssssssssssssssscsssssssssssssccssssssssssssssssssssssssssssssscssscssscssccccssssssscssssssssssssssssssssssssssssssssssssscsssssssssscsssscssssccssssssssssssssssscscccssssssssssssssssssscssscsssscsssssssssssssssssssssssscssssssscsssssssssssssssssscscsscsssssssssssssssssccsssssssscsssssssss" />
      <path
         style="fill:#e70711;stroke-width:1.33333"
         d="m 506.33333,374.25657 c -2.2,-1.01716 -17.21734,-2.48182 -19.31633,-2.94928 -3.69233,-0.82228 4.88523,-25.43449 17.66499,-29.57858 4.51376,-1.46368 12.16142,14.0628 18.65897,19.05662 7.96207,6.11942 -8.23452,17.52743 -17.00763,13.47124 z m -34,-17.80628 c -2.06744,-0.83424 -2.14232,-7.71962 -0.17506,-16.09782 3.04266,-12.95812 10.19378,-21.48187 23.78196,-28.34678 5.53288,-2.79528 12.33641,-6.64008 15.11898,-8.54401 2.78256,-1.90392 5.39214,-3.46168 5.79903,-3.46168 2.2708,0 17.22968,-10.51204 21.17808,-14.88244 5.41855,-5.99769 5.52099,-6.69504 1.85493,-12.62685 -1.91328,-3.09575 -3.77708,-4.49071 -6,-4.49071 -2.82896,0 -3.22458,0.60465 -3.22458,4.92833 0,6.34354 -5.1656,13.87883 -12.83611,18.7246 -3.20419,2.02423 -5.82687,4.1304 -5.82817,4.6804 -10e-4,0.55 -0.76311,1 -1.69288,1 -0.92976,0 -3.9554,1.53906 -6.72366,3.42012 -2.76824,1.88107 -6.05062,3.22419 -7.2942,2.9847 -1.9563,-0.37675 -1.83682,-0.85964 0.88659,-3.58306 1.73119,-1.73118 4.4918,-6.5243 6.13469,-10.65136 6.41312,-16.11022 12.88642,-28.17037 15.12448,-28.17784 5.55918,-0.0185 11.76702,-2.84646 13.84279,-6.30593 2.62993,-4.38305 11.1536,-13.25313 15.42647,-16.05343 6.0552,-3.96837 9.99941,-3.28974 16.71514,2.87596 5.10143,4.68363 6.2435,6.56566 6.23742,10.27879 -0.0107,6.67921 -2.18252,13.38116 -6.02215,18.58548 -3.19819,4.33491 -3.34092,5.21615 -2.50788,15.48305 l 0.88333,10.88655 -4.8396,4.8396 c -3.6669,3.66689 -4.8396,5.93859 -4.8396,9.37501 0,10.92715 -5.27208,16.33726 -20.53006,21.06755 -10.19122,3.15948 -12.08596,3.36556 -19.05972,2.07297 -15.59671,-2.89086 -31.07688,3.51358 -31.07688,12.85711 0,2.41168 0.8934,5.12633 1.98532,6.03255 1.09192,0.90622 1.65652,2.17969 1.25464,2.82993 -0.76572,1.23896 -10.70155,1.45799 -13.5733,0.29921 z M 368.66667,345.44424 c -3.66667,-3.6658 -7.60979,-6.6904 -8.76248,-6.72133 -4.09496,-0.10987 -14.78895,-4.4065 -15.48552,-6.22174 -0.38926,-1.01437 0.59232,-4.61004 2.18126,-7.99038 2.33372,-4.96479 2.62844,-6.89352 1.53338,-10.03483 -2.12782,-6.10385 -5.15311,-8.34915 -10.80062,-8.01592 -3.77242,0.22259 -6.07145,-0.58716 -9.24229,-3.25525 -4.13992,-3.48351 -4.21697,-3.75894 -4.02233,-14.37816 0.21824,-11.90799 2.77238,-17.76858 10.99304,-25.22402 7.55854,-6.85494 11.78317,-3.71453 14.71357,10.93744 2.23201,11.16007 17.76301,30.31382 29.14748,35.9464 7.05853,3.4923 6.56848,0.6379 -0.99777,-5.81158 -8.28162,-7.05927 -14.50758,-16.36562 -12.53704,-18.73995 0.81621,-0.98348 1.28796,-3.17116 1.04833,-4.86153 C 366.0942,278.66449 365.15708,278 362.10137,278 c -3.14484,0 -4.0933,-0.72403 -4.90557,-3.74475 -0.72299,-2.68873 -0.48388,-3.94546 0.84787,-4.4565 1.02016,-0.39147 2.19853,-1.79471 2.61862,-3.1183 0.53459,-1.68434 1.61422,-2.18416 3.5976,-1.66549 2.76356,0.72269 2.81199,0.48299 1.95362,-9.67145 -0.4841,-5.72688 -0.88018,-12.42199 -0.88018,-14.87802 0,-3.4934 -0.54977,-4.46549 -2.52548,-4.46549 -2.22746,0 -2.59396,-1.29807 -3.10569,-11 -0.31911,-6.05 -0.14705,-11.50559 0.38235,-12.12352 1.28605,-1.50115 6.58216,1.41996 6.58216,3.63045 0,0.96054 1.1184,2.75858 2.48534,3.99564 1.64492,1.48863 2.73032,4.8273 3.20982,9.87331 1.29881,13.66828 8.29906,25.22048 18.37753,30.32763 5.17095,2.62032 8.52216,3.29649 16.33775,3.29649 19.04918,0 29.57454,-6.18257 41.0921,-24.13743 7.302,-11.38317 10.49018,-14.07014 18.14744,-15.29458 4.35407,-0.69626 5.84351,-0.26107 9.4272,2.75441 4.78044,4.02248 5.31103,7.48668 2.1249,13.87344 -3.25054,6.51583 -6.45092,3.75951 -4.39284,-3.78332 0.89798,-3.29112 -3.47418,-3.00443 -7.22736,0.47392 -2.55479,2.36768 -3.58188,4.64004 -3.58188,7.92456 0,4.29199 0.42397,4.74945 6.23752,6.73033 7.87916,2.6847 11.1902,2.673 16.92089,-0.0597 5.1586,-2.45996 6.88968,-5.44621 8.19223,-14.13219 1.42096,-9.4757 -4.30055,-18.27893 -15.01362,-23.10022 -9.52046,-4.28459 -25.41289,2.62514 -32.48929,14.12574 -3.94791,6.41614 -11.15961,13.29174 -13.94151,13.29174 -0.86884,0 -2.28656,0.85169 -3.15048,1.89266 C 427.87964,246.41827 411.50327,252 407.59208,252 c -2.36391,0 -13.41169,-5.06084 -18.56065,-8.50239 -5.45128,-3.64362 -7.6981,-9.35917 -7.6981,-19.58273 0,-8.50063 -0.30158,-9.39029 -5.34696,-15.77317 -5.60813,-7.09482 -6.44504,-7.4786 -19.3197,-8.85959 -10.90159,-1.16933 -15.97306,-5.07828 -17.83152,-13.74401 -1.98914,-9.27503 0.0908,-19.55855 5.27474,-26.0796 12.336,-15.51779 16.23338,-19.3248 21.6851,-21.18239 5.688,-1.93809 12.67729,-1.53844 20.20501,1.15535 3.34991,1.19876 11.33333,8.6101 11.33333,10.5212 0,0.78625 -2.4,4.33388 -5.33333,7.88361 -2.93333,3.54975 -5.33333,6.87561 -5.33333,7.39081 0,0.51522 -1.05479,2.09988 -2.34396,3.5215 -6.35954,7.01282 -9.21239,16.3868 -5.65604,18.58474 0.73333,0.45323 1.33333,2.24519 1.33333,3.98215 0,5.73277 17.84957,14.39455 32,15.52848 7.20779,0.57759 27.70441,-2.01129 34.53812,-4.36244 3.96697,-1.36483 8.31875,-2.48152 9.67061,-2.48152 1.35187,0 2.45794,-0.61883 2.45794,-1.37517 0,-2.70524 -4.49479,-3.0128 -13.17784,-0.90171 -14.04156,3.41388 -29.84138,4.18588 -34.66099,1.69356 -2.21581,-1.14584 -6.00855,-2.08559 -8.42829,-2.08833 -7.06278,-0.008 -18.27232,-8.15656 -18.33511,-13.32835 -0.0345,-2.84772 3.32265,-12.10851 4.76213,-13.13613 0.66555,-0.47512 3.78936,-3.99195 6.94182,-7.81518 10.16748,-12.33089 36.53701,-22.55674 49.30297,-19.11924 8.64239,2.32716 7.44164,5.40388 -2.10897,5.40388 -13.02846,0 -29.43672,9.49271 -36.16022,20.91986 -1.23369,2.09676 -1.59538,2.15102 -2.7561,0.41348 -0.73483,-1.1 -1.60811,-2.6 -1.94063,-3.33334 -1.14813,-2.53208 -4.88843,4.01139 -4.49751,7.86818 0.5455,5.38182 5.14084,8.33958 18.79211,12.09542 8.47076,2.33055 16.72388,3.42203 30.33877,4.01232 12.87774,0.55835 21.35283,1.62947 27.21196,3.43916 10.96672,3.38728 23.05195,12.4177 27.88968,20.83994 2.02556,3.52641 5.13023,8.81165 6.89927,11.74498 2.76668,4.58762 3.21948,7.02863 3.23835,17.45794 0.0229,12.68789 -1.44016,18.59245 -8.55928,34.54206 -5.51036,12.34536 -6.31312,13.77471 -10.14972,18.07199 -4.10379,4.59655 -19.83163,15.89212 -22.15796,15.91363 -0.85555,0.008 -1.75555,0.52954 -2,1.15918 -0.76798,1.97814 -22.75944,9.2416 -30.77354,10.16406 -4.34174,0.49974 -10.83845,0.22262 -14.99108,-0.63946 C 411.81535,321.60888 405.34319,325.13041 416,328 c 5.61389,1.51167 6.92127,3.60064 3,4.79349 -3.38436,1.02954 -11.22549,4.98683 -12.95828,6.53984 -5.34411,4.78968 -18.23607,11.0035 -24.74977,11.92919 -5.79123,0.82301 -6.1459,0.65956 -12.62528,-5.81828 z M 452,346.77049 c -5.82731,-3.11953 -13.76996,-11.70948 -12.90685,-13.95869 0.3929,-1.02391 3.33569,-1.74559 7.50524,-1.84056 9.17492,-0.20899 14.96186,4.51495 15.2259,12.42907 0.14499,4.34577 -0.29044,5.31897 -2.49096,5.56737 -1.46666,0.16556 -4.76666,-0.82317 -7.33333,-2.19719 z m 62.66667,-126.71181 c 0,-0.70107 -1.84259,-4.39971 -4.09466,-8.2192 -4.49266,-7.6196 -4.35436,-4.67699 -1.82708,-38.87024 1.14767,-15.52761 -0.96717,-23.29439 -7.03544,-25.83769 -9.41794,-3.9472 -26.02212,-1.44372 -35.32041,5.32542 -4.95899,3.61015 -7.72241,1.26359 -7.72241,-6.55749 0,-7.78445 -2.27335,-12.25439 -7.49184,-14.73073 -3.67626,-1.74449 -5.85807,-1.83135 -14.05503,-0.55955 -5.33679,0.82803 -10.65392,2.36585 -11.81585,3.41739 -1.16194,1.05154 -3.58066,2.07573 -5.37495,2.27598 -2.8502,0.3181 -3.31224,-0.2278 -3.6574,-4.32122 -0.25588,-3.03473 0.74365,-6.7925 2.83725,-10.66667 1.77778,-3.28974 4.58562,-8.47281 6.23966,-11.51793 1.65405,-3.04512 4.27728,-6.11668 5.82942,-6.82567 16.90678,-7.722793 16.33566,-7.595423 22.20002,-4.950965 3.5454,1.598753 7.82798,5.495515 12.32537,11.214965 11.5214,14.65207 13.32228,15.66465 24.19171,13.60225 8.32004,-1.57868 9.54716,-1.11889 16.4383,6.15931 5.45359,5.75989 5.66667,6.30597 5.66667,14.52273 0,6.94824 0.64125,9.5068 3.44429,13.74247 1.89436,2.86257 4.24698,5.51269 5.22804,5.88917 0.98106,0.37647 4.15596,3.8715 7.05535,7.76674 3.91117,5.25454 5.49521,8.8632 6.13809,13.98329 0.50987,4.06077 0.32819,7.23372 -0.44141,7.70937 -0.71935,0.44458 -0.98603,1.64711 -0.59263,2.6723 0.81102,2.11346 -3.20512,11.38396 -4.93172,11.38396 -1.7838,0 -6.54668,5.58858 -8.80657,10.33333 -1.95745,4.10973 -4.42677,5.81592 -4.42677,3.05868 z m -27.224,-28.37135 c -1.1043,-1.68537 -2.93912,-5.70393 -4.0774,-8.93014 -1.13827,-3.2262 -3.2136,-6.66712 -4.61184,-7.6465 -1.39826,-0.97937 -2.92704,-3.53252 -3.39732,-5.67366 -0.47027,-2.14115 -2.29608,-5.4479 -4.05734,-7.34832 -1.76126,-1.90044 -2.91461,-4.19784 -2.563,-5.10536 0.8775,-2.26476 8.22863,-6.31668 11.45994,-6.31668 1.45545,0 3.68998,-0.55858 4.96562,-1.24128 1.27566,-0.68271 4.79379,-0.9094 7.81807,-0.50376 4.38436,0.58806 5.80355,1.47349 7.00295,4.36909 1.69825,4.09995 1.03265,21.21007 -0.87626,22.52532 -3.09885,2.13513 -7.10609,9.64147 -7.10609,13.31109 0,5.2727 -2.03205,6.41426 -4.55733,2.5602 z m -60.776,-8.92389 c 0,-1.95209 6.76742,-6.76344 9.51314,-6.76344 2.83478,0 3.37662,3.91024 0.88686,6.4 -1.87498,1.87497 -10.4,2.17288 -10.4,0.36344 z m 30.1614,-15.49031 c -1.17308,-3.05698 -9.66415,-6.13498 -17.37566,-6.29864 -4.94609,-0.10493 -8.29778,0.73156 -12.36306,3.08566 -7.98552,4.6242 -8.83619,1.99208 -1.50746,-4.66438 5.24612,-4.76488 7.42424,-5.81354 13.57696,-6.53666 7.36083,-0.86512 13.11836,0.35336 14.84115,3.14089 0.50913,0.8238 2.36743,2.04596 4.12952,2.71591 2.54651,0.96818 3.20381,2.18229 3.20381,5.91776 0,4.90597 -2.96822,6.64493 -4.50526,2.63946 z"
         id="path3487"
         sodipodi:nodetypes="ssssssssssssssscssssssssscsscsssssssssssssssssssssssssssssssssssssssssssssssssssssssssssssssssssssssssssssssssssssssssssssssssssssssssssssssssssssssssssssssssssssssssssssssssssssssssssssss" />
      <path
         style="fill:#0c080a;stroke-width:1.33333"
         d="m 269.92751,750.02835 c -8.71658,-2.75407 -16.77287,-7.27943 -24.25116,-13.62234 -9.2287,-7.82753 -11.7115,-15.38966 -9.7028,-29.55282 2.09492,-14.77115 8.27185,-27.86056 18.45209,-39.1015 3.44828,-3.80756 5.6486,-7.2677 8.76195,-13.77876 1.05908,-2.21489 3.23732,-5.21416 4.84053,-6.66505 4.27756,-3.87113 8.35272,-11.36748 16.69188,-30.70511 l 7.44225,-17.43454 -3.7478,-2.84572 c -12.4652,-9.46489 -28.22781,-12.703 -71.74778,-12.86791 -27.55071,-0.1044 -33.11232,0.22068 -40,2.33809 -4.4,1.35266 -8.75,3.07612 -9.66667,3.82994 -2.66437,2.19101 -2.27784,28.24238 0.45965,30.97988 3.619,3.619 9.87231,6.24429 12.72042,5.34034 2.80701,-0.89092 9.15326,3.7151 9.15326,6.64327 0,0.80005 -3.13588,2.5684 -6.96862,3.92967 -6.65182,2.3625 -15.69804,10.12948 -15.69804,13.4781 0,0.81003 -0.72882,2.20159 -1.61959,3.09236 -1.27056,1.27056 -2.67405,0.46602 -6.51264,-3.73333 C 154.66311,645.11773 152.69675,644 149.11737,644 c -2.48821,0 -5.85753,0.93403 -7.48736,2.0756 -4.36433,3.05689 -3.74184,7.92165 1.73528,13.56127 5.30836,5.46584 5.34022,7.81673 0.1008,7.43792 -5.01146,-0.36232 -12.60679,-5.3623 -15.59847,-10.26843 -5.2278,-8.57317 -1.58469,-24.30855 6.77071,-29.2442 3.9507,-2.33373 4.03351,-2.60296 4.29744,-13.97088 0.33646,-14.49159 0.29756,-15.40315 -1.66104,-38.92461 -0.88541,-10.63334 -1.98445,-23.83334 -2.44229,-29.33334 -0.81343,-9.7714 -0.9192,-10.00993 -4.62723,-10.43425 -3.57711,-0.40936 -3.74471,-0.20632 -2.92194,3.53973 1.13006,5.14512 -1.04178,6.4245 -4.53713,2.67267 -5.33672,-5.72829 -2.70305,-12.66044 5.29593,-13.93953 6.8429,-1.09423 6.71314,-2.6847 -0.37542,-4.60136 -8.21409,-2.221 -14.87192,-0.34595 -15.41335,4.34088 -0.22735,1.96797 0.57371,5.48692 1.78013,7.81986 1.41273,2.73194 1.73446,4.70076 0.90388,5.53134 -1.8319,1.83192 -5.52766,-0.78643 -10.11198,-7.16406 -3.42728,-4.76797 -3.76044,-6.11246 -3.10009,-12.51069 1.02389,-9.92053 4.24421,-14.71735 12.63714,-18.82363 5.75215,-2.81426 8.18207,-3.29408 13.19932,-2.6064 l 6.1493,0.84286 -0.84601,-15.00038 c -0.46529,-8.2502 -1.24066,-24.15037 -1.72302,-35.3337 -0.48236,-11.18334 -1.25981,-20.33334 -1.72765,-20.33334 -0.46785,0 -3.77201,4.05 -7.3426,9 -12.07297,16.73711 -17.61776,19.68734 -39.540737,21.03854 -18.812582,1.15948 -29.498116,4.66864 -37.047036,12.16633 l -5.849386,5.80969 0.877512,7.46627 c 1.10102,9.36796 2.633088,12.25381 7.100688,13.37511 8.430904,2.11602 14.842259,-8.30502 8.46756,-13.7632 -3.419344,-2.92774 -3.459986,-4.70084 -0.175873,-7.67294 3.178552,-2.87654 7.034349,-1.85617 10.727439,2.83883 3.833697,4.87376 3.356356,10.23444 -1.583192,17.77969 -8.173051,12.48448 -23.496148,15.49424 -32.549366,6.39335 -5.996152,-6.02772 -9.30382,-18.49095 -7.090301,-26.71609 C 30.149936,459.43232 42.432515,449.84764 68,443.81315 c 35.32512,-8.33752 46.38142,-14.1669 55.69603,-29.36544 12.83152,-20.93704 25.72233,-35.78104 31.07294,-35.78104 4.09782,0 3.00511,3.01222 -3.35816,9.25729 -6.28506,6.16833 -12.13357,17.60273 -10.79185,21.09917 0.44257,1.15335 0.10213,2.53123 -0.7566,3.06194 -1.67523,1.03534 -2.28013,49.83713 -0.79224,63.91493 0.42629,4.03333 1.42888,27.43333 2.22799,52 0.7991,24.56667 2.13941,51.56667 2.97845,60 0.83905,8.43333 1.57007,18.87885 1.62449,23.21228 0.0628,5.002 0.70264,8.0838 1.75226,8.43999 1.88496,0.63966 1.33501,-41.21204 -1.03791,-78.9856 -0.73708,-11.73334 -2.25009,-36.03334 -3.36224,-54 -2.21327,-35.75494 -1.76005,-66.27615 1.13841,-76.66667 3.48835,-12.50508 9.96331,-22.25488 17.38776,-26.18191 8.1373,-4.30408 9.9449,0.25694 3.48554,8.79484 -7.08967,9.37103 -7.75807,14.15866 -7.2012,51.5798 0.63181,42.45672 1.74316,63.62164 3.5145,66.93143 1.2875,2.40569 2.52272,2.53076 18.23478,1.84627 20.58309,-0.89671 41.6941,-5.25495 47.88114,-9.88478 8.01115,-5.99482 11.60263,-14.75282 9.19359,-22.41898 -2.6696,-8.49528 -3.50132,-9.80863 -6.47901,-10.23072 -3.19951,-0.45355 -3.60732,-4.00188 -0.84618,-7.3627 1.89583,-2.30756 15.3269,-4.80342 21.87627,-4.06522 6.29379,0.7094 20.17059,7.06709 28.33645,12.98241 6.94702,5.0324 17.69756,21.37199 22.65556,34.43384 6.75744,17.80252 8.70163,31.95836 7.87343,57.32741 -1.21069,37.08542 -6.26796,54.82124 -24.55336,86.10856 -11.18525,19.13858 -15.43565,29.93364 -17.68115,44.9061 -1.69048,11.27182 -0.91109,14.80774 4.3404,19.69126 7.2762,6.76638 23.39786,-1.0655 22.02608,-10.70024 -0.52233,-3.66865 -5.00457,-4.93481 -6.70609,-1.89436 -1.32945,2.3756 -4.47171,2.83974 -5.70588,0.84282 -1.34217,-2.17168 3.18595,-9.33091 7.7072,-12.18555 3.62051,-2.28592 5.67057,-2.57591 13.50251,-1.90999 7.91356,0.67287 10.02345,1.43212 14.75572,5.30986 8.33897,6.83317 11.24618,20.92048 7.32362,35.48774 -1.66989,6.20155 -9.07824,14.24467 -16.25902,17.65218 -10.28623,4.88112 -28.66074,6.27508 -39.12672,2.96828 z m 25.15362,-165.45968 c 2.52496,-11.39782 -0.67981,-51.78078 -4.4218,-55.71876 -0.60106,-0.63255 -3.98026,1.05462 -7.50933,3.74926 -9.75333,7.44723 -39.51272,21.33299 -52.51208,24.5022 -15.29144,3.72802 -33.63888,5.8963 -50.97125,6.02374 l -14.33334,0.10533 v 8.82921 c 0,4.85606 0.32828,9.15748 0.72952,9.55871 0.40123,0.40124 4.45123,-0.47723 9,-1.95215 7.28391,-2.36176 12.00818,-2.6931 39.60382,-2.77762 38.8318,-0.11894 56.11345,2.15001 68.59234,9.00566 4.44088,2.43974 8.65663,4.31748 9.36834,4.17279 0.7117,-0.14469 1.81592,-2.61899 2.45378,-5.49841 z m -93.7478,-28.76606 c 16.90834,-1.97214 34.74339,-6.44009 47.92896,-12.00693 14.32624,-6.04841 29.05716,-14.33171 35.11803,-19.74708 l 4.12169,-3.68273 -2.44516,-6.40258 c -3.51985,-9.21657 -12.25985,-23.92357 -17.30376,-29.11742 -3.97865,-4.09692 -15.99462,-10.04879 -17.41649,-8.62691 -0.33217,0.33217 -0.014,4.26715 0.70703,8.7444 1.69996,10.55584 0.46854,13.62905 -9.09372,22.695 -8.23439,7.80697 -17.8201,12.9962 -26.28324,14.22843 -24.65131,3.58922 -40.33026,4.72714 -47.37746,3.43848 -3.27009,-0.59798 -6.25214,-0.59126 -6.62678,0.0149 -0.96955,1.56876 1.7781,28.30983 3.12265,30.39075 1.27861,1.97886 18.8922,2.01438 35.54825,0.0717 z m 248.65908,191.17698 c -0.7375,-0.53878 -2.92597,-3.10888 -4.86326,-5.71136 -6.07982,-8.16736 -7.9312,-19.25787 -4.98579,-29.86687 3.26477,-11.75929 28.71287,-30.58789 48.94365,-36.21255 l 8.35719,-2.3235 9.11439,-14.76599 c 5.01292,-8.12129 13.42709,-21.95936 18.69817,-30.75127 l 9.58379,-15.98528 -5.7536,-4.99792 c -3.1645,-2.74886 -11.20339,-8.89689 -17.86423,-13.66229 -6.66083,-4.76539 -12.84064,-10.2666 -13.73289,-12.22489 -2.00303,-4.39616 -5.14442,-25.30128 -6.08254,-40.47767 -0.3853,-6.23333 -1.26225,-14.63333 -1.94877,-18.66667 L 488.21031,514 500.43849,501.37392 c 6.7255,-6.94435 12.83434,-13.04367 13.57519,-13.55404 0.74087,-0.51037 6.44087,-6.72651 12.66667,-13.81361 12.36978,-14.0811 17.15862,-17.56651 21.17928,-15.41474 1.96685,1.05264 2.62448,3.27212 3.07372,10.3738 0.42538,6.72471 1.40184,10.25648 3.81908,13.81342 4.53238,6.66932 11.63153,11.88792 16.17177,11.88792 11.18177,0 17.61352,-7.73227 16.21987,-19.49958 -1.07967,-9.11608 1.23412,-11.05545 8.66621,-7.26388 7.61123,3.88296 9.52305,7.25132 9.52305,16.7782 0,8.57591 -0.82232,10.6713 -10.19774,25.98526 -2.91822,4.76666 -6.11294,10.76666 -7.09936,13.33333 -2.72734,7.09641 -13.73771,28.85881 -19.88942,39.31217 -3.01408,5.1217 -5.48014,9.75139 -5.48014,10.28822 0,0.53681 9.5957,7.3138 21.32378,15.05997 20.39328,13.46936 21.35944,14.30695 22.14102,19.19459 1.23712,7.73658 2.6336,9.37826 5.22169,6.13856 1.80616,-2.26091 2.01629,-5.56194 1.40003,-21.99351 -0.3988,-10.63333 -1.12356,-31.72653 -1.6106,-46.87376 l -0.88551,-27.54043 7.2048,-3.63313 c 18.81529,-9.48792 37.13639,-26.35884 42.98427,-39.58193 3.91414,-8.85058 5.83232,-10.34219 8.7368,-6.79391 1.18272,1.44488 6.90925,6.48116 12.72565,11.19176 5.81639,4.7106 12.054,9.91473 13.86136,11.56473 1.80736,1.65 3.77737,3 4.37783,3 2.41624,0 4.04277,6.05116 4.58649,17.06308 L 705.30723,522 l -8.20863,6.66667 c -7.27868,5.9114 -19.81088,17.12704 -52.73755,47.19725 l -9.63896,8.80275 -0.0277,9.50024 -0.0277,9.50024 8.29965,1.83309 c 4.5648,1.0082 10.29144,3.18309 12.72587,4.83309 2.43444,1.65 4.94978,3 5.58969,3 1.10963,0 10.72769,-11.87502 24.858,-30.69116 10.71433,-14.26736 13.98365,-19.88458 14.98415,-25.74524 0.52237,-3.05997 1.53317,-5.43404 2.24621,-5.27569 3.41823,0.75911 3.86679,27.66364 0.56409,33.83479 -2.08174,3.8898 -28.50112,40.4359 -36.45804,50.43266 -3.74529,4.70546 -9.2149,12.20546 -12.15468,16.66667 -3.47692,5.27635 -6.38949,8.26023 -8.33333,8.53737 -4.11904,0.5873 -3.97009,-3.78933 0.34505,-10.13965 2.2814,-3.35737 3.33334,-6.71927 3.33334,-10.65305 0,-5.01344 -0.80899,-6.61627 -6.33334,-12.54818 -8.3102,-8.92326 -12.60748,-10.61604 -25.94582,-10.22052 l -10.74292,0.31855 0.83433,10.07507 c 0.45888,5.54128 1.41415,15.44334 2.12281,22.00458 1.52451,14.1149 0.88768,15.4038 -7.61072,15.4038 -8.04601,0 -28.55808,9.70248 -37.03904,17.51996 C 554.18227,693.70223 544,713.44125 544,725.40872 c 0,3.51319 -0.78105,4.35419 -6.20193,6.67784 -3.41106,1.46215 -8.2648,4.46969 -10.78611,6.68341 -3.80911,3.34444 -4.92624,3.74107 -6.60736,2.34587 -3.11783,-2.58757 -1.2708,-11.51877 4.96763,-24.02065 2.97897,-5.96992 5.1299,-11.60079 4.77984,-12.51306 -0.35007,-0.91225 -4.7275,-3.66642 -9.72762,-6.12038 -8.50964,-4.17636 -9.91602,-4.45252 -21.98793,-4.31743 -12.18864,0.1364 -13.465,0.42925 -23.24413,5.33333 -16.48346,8.26619 -22.9334,19.99694 -21.36412,38.85568 0.80077,9.62314 -0.007,11.44348 -3.83586,8.64626 z M 560,674.62468 c 3.3,-2.70724 8.00017,-5.94665 10.44483,-7.19869 l 4.44482,-2.27644 -0.80906,-16.24144 c -0.44499,-8.93279 -1.148,-21.17912 -1.56224,-27.21407 l -0.75318,-10.97264 -6.21592,-4.48301 c -3.41876,-2.46567 -7.11592,-4.87418 -8.21592,-5.35223 -1.1,-0.47805 -3.02122,-1.60179 -4.26938,-2.49719 -1.24816,-0.89538 -2.49142,-1.34921 -2.76279,-1.00848 -0.27137,0.34074 -7.26255,12.01951 -15.53596,25.95284 -8.2734,13.93334 -17.98015,30.20752 -21.57055,36.16486 -3.59038,5.95733 -6.52798,11.50733 -6.52798,12.33333 0,0.99001 3.6831,1.50181 10.80754,1.50181 10.73544,0 24.04498,2.61502 30.48592,5.98976 3.82526,2.00426 3.90991,1.97122 12.03987,-4.69841 z m -7.95853,-95.38239 c 1.52613,-3.35006 4.81197,-9.27566 7.30188,-13.168 6.27086,-9.80294 21.98998,-40.2991 21.98998,-42.66208 0,-1.58637 -0.7461,-1.68006 -4.09166,-0.5138 -5.95326,2.07532 -24.82146,0.63446 -31.25871,-2.38705 -6.25963,-2.93815 -13.16619,-7.57788 -18.30239,-12.29533 -2.00901,-1.84523 -4.06742,-2.9403 -4.57422,-2.43348 -0.50682,0.50681 -0.2377,4.66306 0.59804,9.23613 0.83573,4.57305 1.869,14.31465 2.29614,21.64799 1.99339,34.22266 2.03783,34.54492 5.05608,36.66666 1.56479,1.1 5.56719,4.21139 8.89423,6.9142 3.32704,2.70282 6.78416,4.95282 7.68251,5 0.89833,0.0472 2.88198,-2.65516 4.40812,-6.00524 z m 92.05784,-18.67809 c 4.71205,-4.08968 13.96736,-11.54265 20.56736,-16.56216 6.6,-5.01951 13.78528,-10.99743 15.96728,-13.28428 l 3.96728,-4.15789 -7.30062,-6.78151 c -4.01533,-3.72984 -10.17416,-8.82668 -13.68626,-11.32633 l -6.38567,-4.5448 -5.61433,4.48614 c -3.0879,2.46739 -8.91435,6.15822 -12.94768,8.20182 -10.36852,5.25353 -10.59966,5.5143 -9.27582,10.46506 1.25503,4.69347 2.414,19.61308 2.5329,32.60642 0.0548,5.98933 0.57298,8.33333 1.84222,8.33333 0.9713,0 5.6213,-3.34611 10.33334,-7.4358 z M 347.55556,736.44444 c -2.30027,-2.30027 -0.36831,-7.40171 5.11111,-13.49615 6.52349,-7.25569 7.56608,-11.78437 3.54974,-15.4191 -2.2876,-2.07026 -2.5912,-2.06168 -4.57385,0.12906 -1.16799,1.29062 -2.75053,3.99548 -3.51676,6.0108 -2.00439,5.27202 -5.45913,4.7955 -5.45913,-0.75293 0,-5.05513 5.11882,-10.84561 10.83589,-12.25771 2.75484,-0.68044 4.5338,0.0403 8.33333,3.37636 6.41884,5.63582 6.30616,9.39974 -0.50256,16.78634 -6.0824,6.59861 -6.45446,7.90802 -2.53806,8.93218 3.65481,0.95576 6.53806,-0.21397 6.53806,-2.65246 0,-1.34043 0.83096,-1.68346 2.66667,-1.10083 2.46141,0.78123 2.66667,0.2396 2.66667,-7.03683 0,-6.03918 0.58994,-8.4171 2.52202,-10.16561 1.49903,-1.3566 2.2472,-3.33335 1.8445,-4.87332 -1.07963,-4.12849 3.18712,-3.18077 9.3222,2.07064 5.09725,4.36305 5.60034,4.52181 7.85705,2.47953 1.56349,-1.41494 2.14633,-3.2369 1.65796,-5.18276 -1.40551,-5.59998 2.11939,-4.81321 8.69879,1.9416 7.41568,7.6134 8.53797,12.21322 4.96321,20.34224 -2.97437,6.76375 -4.34864,7.21334 -8.74037,2.85934 -2.09046,-2.07248 -4.77384,-4.54182 -5.9631,-5.4874 -1.24637,-0.991 -2.16226,-3.67366 -2.16226,-6.33334 0,-2.53774 -0.57174,-4.61409 -1.27052,-4.61409 -0.71924,0 -0.98475,2.748 -0.61194,6.33333 0.57831,5.56134 0.18576,6.8902 -3.22032,10.90175 l -3.87892,4.5684 -3.68896,-2.90173 c -4.42925,-3.48406 -7.10025,-3.72788 -6.84786,-0.62512 0.29365,3.61004 -5.9501,6.00229 -11.0373,4.22889 -3.47024,-1.20973 -4.66061,-1.08796 -6.60997,0.67619 -2.5316,2.29106 -4.49911,2.70894 -5.94532,1.26273 z M 380,716.47687 c 0,-4.22886 -0.49829,-5.86884 -1.66667,-5.4853 -1.80842,0.59367 -2.98522,8.05312 -1.77002,11.21987 1.41277,3.68163 3.43669,0.30445 3.43669,-5.73457 z m 20,0.26849 c 0,-1.79005 -0.6,-3.62547 -1.33333,-4.07869 -0.7779,-0.48078 -1.33334,0.87504 -1.33334,3.25464 0,2.24328 0.6,4.07869 1.33334,4.07869 C 399.4,720 400,718.53541 400,716.74536 Z m 16.58776,16.43539 c -2.10975,-4.07979 -2.04023,-4.37135 3.96576,-16.6327 3.36223,-6.86405 6.11315,-13.12826 6.11315,-13.92046 0,-0.88648 -2.43547,-1.2841 -6.33334,-1.03398 -5.40465,0.3468 -6.39581,0.84628 -6.7594,3.40639 -0.23433,1.65 -1.28433,3 -2.33333,3 -2.42093,0 -2.61781,-8.44623 -0.2406,-10.32175 0.91667,-0.72321 6.93365,-1.70149 13.37108,-2.17394 13.724,-1.00723 13.45126,-0.32441 10.51803,8.46798 -3.26513,11.31203 -1.91304,6.42729 -4.78494,14.67036 -2.33591,4.70135 -1.5989,4.17091 -4.1875,10.56568 -2.14576,5.51135 -2.44511,7.90128 -5.26267,8.125 -1.05537,0 -2.88517,-1.86866 -4.06624,-4.15258 z m -52.02583,-57.51408 c -0.52312,-1.65 -5.03896,-7.52808 -10.03521,-13.06242 -14.04923,-15.56226 -30.38575,-23.1135 -43.5872,-20.14733 -3.56963,0.80204 -5.91001,0.79684 -6.41129,-0.0143 -1.24259,-2.01054 3.327,-6.19192 8.633,-7.89958 8.49162,-2.73291 8.57476,-2.93578 7.58028,-18.49979 C 320.248,608.31949 319.34404,587.3 318.73272,569.33333 L 317.62121,536.66667 320.86681,531 c 1.78508,-3.11667 3.72876,-5.66667 4.31931,-5.66667 0.59053,0 5.11359,-3.75272 10.05124,-8.33937 l 8.97753,-8.33937 -3.05776,-5.72859 c -3.49533,-6.54839 -3.06445,-7.88203 4.5334,-14.03147 6.13927,-4.96893 9.83362,-4.12756 14.30947,3.25891 3.16647,5.22561 8.00669,11.11733 15.20916,18.51323 1.78539,1.83333 6.55677,5.43333 10.60309,8 4.04631,2.56666 7.76648,5.56666 8.26704,6.66666 1.18907,2.61303 3.00276,30.52727 3.94175,60.66667 0.41124,13.2 1.35581,31.39171 2.09905,40.426 l 1.35136,16.42601 -12.11609,12.67366 c -6.66385,6.9705 -13.67467,15.0288 -15.57957,17.90732 -3.86168,5.8354 -7.7715,6.78324 -9.21386,2.23368 z m 18.7057,-43 c -1.00451,-4.8126 -3.26738,-48.25104 -3.27922,-62.94847 -0.007,-7.91168 -0.39062,-17.54052 -0.85388,-21.39744 -0.81902,-6.81889 -1.0967,-7.20119 -10.05378,-13.84135 -5.06632,-3.75581 -10.7533,-8.85016 -12.63771,-11.32076 -1.88441,-2.47058 -4.0432,-4.49198 -4.79731,-4.49198 -1.51153,0 -9.53172,6.37241 -17.36377,13.79634 -4.76843,4.51995 -5.01321,5.1452 -4.37011,11.16258 0.72887,6.81988 1.51416,20.74149 3.4432,61.04108 0.66696,13.93333 1.23492,25.40604 1.26214,25.49489 0.0272,0.0888 2.89948,0.54145 6.38281,1.00579 7.78429,1.03762 26.47483,7.89485 31,11.37334 l 3.33333,2.56232 4.24544,-4.88484 c 2.63939,-3.03689 4.03488,-5.89365 3.68886,-7.5515 z m 50.42604,34.39589 c -1.63516,-0.31585 -6.23239,-3.68415 -10.21608,-7.48509 -10.58591,-10.10028 -11.27323,-13.26112 -13.53507,-62.24414 -2.17149,-47.02676 -4.24056,-74.1532 -5.89128,-77.2376 -0.63783,-1.19178 -4.89803,-5.4184 -9.46712,-9.39246 -4.56908,-3.97407 -10.01968,-9.92554 -12.11244,-13.22547 -3.82304,-6.02832 -5.05437,-13.88161 -2.43075,-15.50311 0.75586,-0.46713 4.73807,2.51446 8.84936,6.62575 7.63106,7.63105 23.94835,16.81857 28.98208,16.31848 1.73899,-0.17277 2.85644,0.8972 3.54635,3.39569 0.55401,2.00636 2.32085,5.77331 3.92631,8.37098 2.34994,3.80229 2.6015,5.1056 1.2904,6.6854 -0.89574,1.07929 -2.70515,1.96234 -4.02091,1.96234 -1.31576,0 -2.59229,0.59726 -2.83675,1.32723 -0.24444,0.72996 -0.007,11.97996 0.529,25 3.51819,85.55721 5.44203,95.00611 19.34378,95.00611 6.22644,0 17.14218,-6.22962 20.57586,-11.74264 2.78376,-4.46955 3.06182,-6.46235 3.01252,-21.5907 -0.0467,-14.30577 -1.45389,-41.54894 -4.11646,-79.68946 -0.64738,-9.27342 -0.85775,-9.78068 -4.89944,-11.81359 -2.32267,-1.16825 -6.47303,-4.27976 -9.22303,-6.91445 -4.89177,-4.68667 -6.09347,-8.45974 -3.83105,-12.02883 1.4255,-2.24884 15.73721,-9.53639 16.74633,-8.52727 0.41327,0.41326 0.75139,2.48003 0.75139,4.59283 0,2.45081 1.28973,5.03672 3.56274,7.14328 4.96311,4.59965 9.46652,5.46073 14.23782,2.72239 2.43074,-1.39506 4.42666,-1.791 5.1884,-1.02927 1.52553,1.52553 -1.56027,7.83813 -5.63344,11.52429 -2.88571,2.61154 -2.90855,2.96738 -2.09656,32.66352 0.92668,33.89107 2.94582,60.16336 5.3816,70.02323 1.42068,5.75087 2.14194,6.72569 5.25048,7.09635 4.24797,0.5065 7.44229,-1.75098 7.44229,-5.2596 0,-2.02551 -1.00312,-2.50342 -5.25464,-2.50342 -2.89005,0 -5.57225,-0.51389 -5.96043,-1.14198 -0.38818,-0.62808 1.66043,-3.04352 4.55248,-5.36764 6.38238,-5.12902 10.48179,-4.63091 15.4454,1.87672 4.80067,6.294 5.4377,12.33346 2.00967,19.05296 -4.93413,9.6717 -16.25447,12.3484 -23.48724,5.55354 l -2.97905,-2.79866 -4.1614,6.76316 c -9.43859,15.33964 -25.31496,24.33248 -38.47112,21.79113 z m 5.23713,-222.50773 c -26.0388,-25.9497 -32.60555,-30.83504 -59.59747,-44.33772 -13.7602,-6.88352 -18.68244,-8.73522 -37.99062,-14.29167 -12.44926,-3.5826 -19.87091,-3.96947 -35.57956,-1.8546 -21.71042,2.92287 -38.35855,10.03219 -52.42982,22.38928 -3.35889,2.94971 -4.03396,4.11336 -2.40893,4.15236 2.65264,0.0637 6.40893,4.95813 6.40893,8.35087 0,3.94014 -4.88513,7.70332 -10,7.70332 -5.15865,0 -10,-3.77155 -10,-7.7903 0,-3.89693 5.40583,-12.63254 13.01567,-21.0328 5.9496,-6.56757 9.69783,-9.07253 24.66667,-16.48481 l 17.651,-8.74043 0.85972,-6.6425 c 0.8349,-6.45084 -0.0651,-32.76975 -2.75768,-80.6425 -0.72182,-12.83333 -1.68451,-42.81256 -2.13934,-66.6205 -0.45484,-23.80796 -1.01074,-43.60796 -1.23536,-44 -0.22462,-0.39206 -0.8428,-12.71283 -1.37372,-27.3795 -0.53093,-14.66666 -1.20413,-28.76666 -1.496,-31.33333 -0.29186,-2.56667 -0.98621,-15.16667 -1.54298,-28 -0.55679,-12.833333 -1.49076,-24.083333 -2.07551,-25 -0.58475,-0.916667 -3.20672,-1.666667 -5.8266,-1.666667 -3.84649,0 -5.88459,1.121182 -10.58797,5.824562 -6.34946,6.349457 -7.73544,12.520629 -3.79092,16.879274 1.81944,2.010463 1.82014,2.424327 0.007,3.929375 -4.30646,3.574056 -13.48482,-6.970731 -15.45756,-17.758828 -2.56384,-14.020544 15.00723,-29.061216 31.74624,-27.174487 5.67339,0.639472 5.69822,0.623156 8.41556,-5.529265 1.49896,-3.393847 4.64466,-8.191297 6.99042,-10.661 10.3264,-10.871967 33.87318,-16.095624 41.3642,-9.176297 7.11548,6.572461 9.88217,24.055622 5.32056,33.62143 -2.6526,5.561835 -7.08673,6.526596 -7.08673,1.54183 0,-3.834599 -2.29013,-5.925264 -7.46041,-6.810624 -9.22396,-1.579514 -19.68346,8.985581 -21.77796,21.997809 -1.44915,9.002999 0.69442,114.110238 2.51648,123.391458 1.64966,8.40311 5.04924,76.74872 5.93201,119.2581 0.65968,31.7662 2.54117,52.65997 4.9792,55.29337 0.70501,0.76151 9.82216,1.14096 22.17072,0.92273 31.37233,-0.5544 48.10759,3.46743 81.63996,19.61983 17.20439,8.28728 28.73556,16.28119 51.47708,35.68617 3.74573,3.19618 7.50765,5.81123 8.35984,5.81123 0.85217,0 4.00337,-1.54912 7.00268,-3.44249 l 5.45327,-3.44251 3.82274,3.66243 c 4.95806,4.75012 7.44176,11.8761 5.11606,14.67841 -0.92174,1.11061 -5.89592,4.48393 -11.05376,7.49628 -5.15784,3.01233 -13.29522,9.28043 -18.08307,13.92909 -4.78785,4.64867 -8.71785,8.34874 -8.73335,8.22238 -0.0155,-0.1264 -11.00929,-11.17331 -24.43069,-24.54876 z M 39.046032,437.2136 c -6.707659,-1.98069 -15.047769,-15.88323 -15.04498,-25.07923 5.79e-4,-1.90724 1.745832,-7.0677 3.878341,-11.4677 7.156446,-14.76588 24.127552,-29.25472 45.864119,-39.15586 14.215019,-6.47502 14.259181,-6.50985 23.659496,-18.65634 8.711282,-11.25616 9.387102,-12.59507 9.007442,-17.84518 -0.34124,-4.71886 -0.91595,-5.74776 -3.4083,-6.10174 -2.19996,-0.31247 -3.34451,0.486 -4.300333,3 -1.438198,3.78274 -2.695061,4.23254 -5.101817,1.82578 -4.478053,-4.47805 -0.09527,-13.98948 6.75067,-14.65014 3.61761,-0.34912 4.38552,-1.02288 4.74567,-4.16382 0.53754,-4.68794 -1.35522,-7.03781 -6.497129,-8.0662 C 89.343412,295.00201 80,302.87979 80,312.53484 c 0,5.42303 -2.208212,4.07497 -4.541331,-2.77236 -3.729476,-10.94541 -1.832922,-21.56999 4.847371,-27.1552 4.948789,-4.13755 13.8475,-7.03947 19.015004,-6.20089 5.482406,0.88966 5.481266,0.89561 3.377856,-17.73972 -0.70357,-6.23334 -1.59663,-23.63334 -1.98457,-38.66667 -0.807218,-31.28116 -1.834806,-45.0444 -3.437021,-46.03463 -4.1113,-2.54092 -34.328346,35.81131 -49.401245,62.7013 -4.521685,8.06666 -9.652093,16.91666 -11.400907,19.66666 -3.201196,5.03387 -5.80849,6.49251 -5.80849,3.24954 0,-2.23204 5.759842,-14.19936 10.281705,-21.36246 1.913933,-3.03186 7.656989,-13.62176 12.762347,-23.5331 5.105358,-9.91136 13.795818,-25.67064 19.312136,-35.02064 l 10.029666,-17 h 5.095798 c 4.695002,0 6.01602,-0.97004 16.795751,-12.33334 C 111.37904,143.55 119.54886,135.3 123.09921,132 c 3.55036,-3.3 12.7758,-13.05 20.50099,-21.66667 12.23179,-13.643334 17.81317,-18.267593 17.70236,-14.666663 -0.0169,0.55 -6.76692,9.198843 -15,19.219663 -20.57087,25.03766 -30.36271,37.70642 -36.4147,47.11367 l -5.14666,8 0.86305,21.42172 c 2.61701,17.40392 1.33365,40.88323 1.78237,53.39869 0.34907,9.44878 0.88151,20.77959 1.1832,25.17959 0.56234,8.20151 1.74331,31.58431 2.72221,53.8988 l 0.55123,12.56547 -6.6431,7.26861 c -6.574731,7.19381 -7.761621,9.91937 -2.99667,6.88152 2.25505,-1.43769 11.64642,-12.57883 14.20598,-16.85279 0.59187,-0.9883 0.45472,-8.83898 -0.30478,-17.44593 -0.75951,-8.60696 -1.67838,-28.24901 -2.04195,-43.64901 -0.7435,-31.49376 -2.93729,-82.5534 -4.06738,-94.66667 -0.84529,-9.06067 -1.9015,-7.4444 21.33797,-32.65215 5.86667,-6.36353 13.36264,-15.12007 16.65772,-19.45896 7.93284,-10.4458 27.5608,-31.874471 33.02536,-36.055163 4.02963,-3.082898 4.7165,-3.203092 9.33334,-1.633234 16.99224,5.777862 66.79109,52.547017 68.74022,64.558157 0.67604,4.16594 0.0657,5.65952 -4.82468,11.80607 -3.07924,3.87023 -8.29862,8.91992 -11.59862,11.22153 -3.3,2.30163 -10.2,8.07023 -15.33334,12.81914 -5.13333,4.7489 -9.78333,8.65542 -10.33333,8.68116 -2.43597,0.114 -0.75173,5.27748 2,6.13152 1.65,0.51209 9.3,4.62576 17,9.14145 7.7,4.51571 19.7,10.80223 26.66667,13.97005 6.96666,3.16783 13.38226,6.4446 14.25688,7.28172 0.87461,0.83712 1.94794,6.02204 2.38517,11.52204 0.43724,5.5 1.04929,11.8 1.36015,14 0.31085,2.2 0.95094,14.8 1.42242,28 0.4715,13.2 1.25371,28.8 1.73826,34.66667 0.48454,5.86667 0.68792,11.56667 0.45194,12.66667 -0.23598,1.1 -3.85944,3.55313 -8.0521,5.4514 -15.57688,7.05254 -33.89035,20.45306 -44.8472,32.81602 -10.18423,11.4912 -18.04571,24.84378 -18.0478,30.65388 -0.001,4.9942 -2.30972,4.68288 -7.58722,-1.02349 -7.15086,-7.73197 -21.77944,-18.3552 -35.0805,-25.47535 -38.26367,-20.48277 -91.386581,-15.82624 -116.326539,10.1967 -7.260016,7.57528 -12.707136,16.12494 -11.220559,17.61152 0.374431,0.37444 2.787047,-0.0808 5.361368,-1.01174 5.569387,-2.01392 13.189759,-0.25389 17.899813,4.13419 6.911875,6.43939 1.788995,20.17244 -9.606433,25.75224 -8.795604,4.30679 -12.417227,5.00984 -17.728288,3.44156 z m 189.260418,-71.329 c 4.51836,-4.83013 10.82394,-10.57692 14.01242,-12.77065 5.54452,-3.81474 5.7701,-4.23107 5.1752,-9.55127 -0.34212,-3.05948 -0.66824,-7.49885 -0.72471,-9.86528 -0.132,-5.53089 -3.23811,-7.57003 -16.82371,-11.04463 -15.59413,-3.98832 -26.64224,-5.5495 -38.81034,-5.48424 -12.864,0.0689 -20.9062,1.82252 -31.88542,6.95234 -10.30652,4.8155 -15.00708,9.11032 -14.58201,13.3233 0.17881,1.77238 0.40169,5.06868 0.49529,7.32514 0.1694,4.08433 0.2183,4.11001 10.95728,5.75396 15.98667,2.44728 36.35532,8.91077 49.54622,15.72228 6.41666,3.31342 11.66666,6.56368 11.66666,7.22277 0,2.89204 3.3199,0.59761 10.97312,-7.58372 z m -92.07318,-17.58453 c 0.59353,-0.59354 0.46888,-25.53692 -0.27699,-55.42978 -0.74588,-29.89284 -1.00576,-54.91754 -0.57752,-55.61045 1.49773,-2.42339 2.901,-1.21521 5.11844,4.40683 l 2.23504,5.66666 L 147.70471,242 c 2.73486,-2.93333 10.93512,-9.53333 18.2228,-14.66667 12.06261,-8.49673 21.59701,-16.82084 43.67374,-38.12988 7.71695,-7.4486 7.73203,-7.47861 7.7028,-15.33333 -0.0415,-11.13345 -3.2594,-17.20261 -14.09852,-26.59005 -5.0466,-4.37071 -11.77845,-10.34674 -14.95968,-13.28007 -3.18124,-2.93333 -8.2668,-6.61126 -11.30128,-8.17317 -4.9438,-2.54468 -6.02593,-2.66035 -10.41189,-1.11289 -9.06733,3.19914 -16.47112,8.76501 -28.89795,21.7243 l -12.36525,12.89509 0.72956,24 c 0.40127,13.2 1.07061,30 1.48744,37.33334 C 127.90331,228 128.44242,242.1 128.6845,252 c 0.24208,9.9 0.86934,30.6 1.3939,46 l 0.95375,28 -8.84941,10.93429 c -4.86717,6.01386 -8.84941,11.65279 -8.84941,12.53096 0,1.81279 20.98996,0.74479 22.89994,-1.16518 z m 16.88985,-30.19355 c 19.56984,-9.91679 62.32065,-11.03036 82.13673,-2.13949 7.52172,3.37477 8.96595,3.66265 9.63448,1.92049 0.94756,-2.46931 -1.40588,-50.84351 -2.52817,-51.96581 -0.43348,-0.43347 -3.14868,0.774 -6.03379,2.68326 -7.182,4.75283 -16.89698,8.14786 -34.99904,12.23088 -13.09057,2.95266 -17.57609,3.37158 -30.66666,2.86406 -14.52508,-0.56312 -16.6604,-1.04528 -27.20959,-6.14391 -1.23871,-0.59869 0.0667,40.59479 1.35237,42.67503 0.95487,1.54501 1.1916,1.48452 8.31367,-2.12451 z M 202,273.90984 c 21.04093,-5.06415 34.91112,-10.5814 39.00636,-15.51587 1.02937,-1.2403 1.25711,-6.52316 0.72007,-16.70312 l -0.78547,-14.88908 -17.27109,-8.76836 -17.2711,-8.76834 -5.53272,4.9249 c -3.043,2.7087 -8.23272,7.67984 -11.53272,11.04699 -3.3,3.36713 -9.3,8.49623 -13.33333,11.39796 -4.03333,2.90173 -12.3488,9.49595 -18.47881,14.65381 -6.13003,5.15787 -12.28003,10.20112 -13.66667,11.20723 -7.70719,5.59211 3.18636,13.18804 21.11489,14.72313 14.53858,1.24484 20.21743,0.73735 37.03059,-3.30925 z m 316.10733,129.85537 c -0.3032,-0.97086 -0.92722,-3.47264 -1.38673,-5.55949 -1.13099,-5.13639 -7.87175,-11.01017 -14.55825,-12.6858 -3.02263,-0.75747 -10.01866,-1.03233 -15.54675,-0.6108 -8.56617,0.6532 -10.86765,0.34983 -15.57855,-2.05349 -5.84369,-2.98124 -9.70372,-7.34172 -9.70372,-10.96183 0,-1.75089 -1.43102,-2.17952 -7.27666,-2.17952 -8.55779,0 -12.69971,-2.28437 -17.27066,-9.52521 C 432.94043,354.09727 425.98632,348 422.88401,348 c -1.2346,0 -8.23856,2.14632 -15.56437,4.76961 -23.55976,8.43647 -24.97596,8.78958 -32.4094,8.08067 -5.91291,-0.56391 -8.03107,-1.5438 -12.76048,-5.90321 -3.38033,-3.11588 -7.61373,-5.5916 -10.4814,-6.12958 -9.96683,-1.86978 -17.62641,-14.56204 -14.64684,-24.27041 1.50175,-4.89312 -0.0178,-8.54708 -3.55439,-8.54708 -3.66984,0 -12.88984,-7.26773 -15.52242,-12.23565 -1.63384,-3.08322 -2.53562,-8.59111 -2.96464,-18.10764 -0.58046,-12.87523 -0.39951,-14.12528 3.08798,-21.33334 2.03751,-4.21118 4.84354,-9.13569 6.23562,-10.94334 C 328.31721,248.16835 339.96829,240 343.38852,240 c 4.20661,0 4.67051,-1.05125 6.57444,-14.89863 l 1.6464,-11.97442 -6.80468,-3.15134 c -13.81091,-6.39598 -17.3614,-12.25772 -17.34889,-28.64228 0.0133,-17.51029 5.6314,-27.46769 22.575,-40.01194 12.40224,-9.18206 17.42465,-11.07877 26.79421,-10.11883 12.62744,1.29372 20.17153,5.24765 25.21824,13.21713 2.35691,3.7219 2.39821,3.73144 4.97852,1.15114 2.12675,-2.12675 2.63727,-4.63828 2.79556,-13.75303 0.16588,-9.55129 0.79593,-12.39453 4.39156,-19.8178 5.07769,-10.48306 9.92097,-15.686205 19.9338,-21.414968 8.22989,-4.708671 15.34991,-5.37356 24.49047,-2.286999 6.3519,2.144898 8.95974,4.465752 14.26513,12.695267 6.11499,9.48533 9.70941,11.59529 20.09339,11.795 7.5632,0.14546 9.3472,0.7391 16.09065,5.35431 9.74756,6.67122 12.65648,12.34479 12.39975,24.18448 -0.20704,9.54788 1.30669,13.03728 8.15574,18.80039 6.12968,5.15777 10.2933,16.159 11.25768,29.74531 0.78932,11.11994 0.6506,12.00785 -2.65668,17.00549 -1.91921,2.90013 -6.20808,8.33396 -9.53081,12.07519 -3.32273,3.74121 -6.0588,7.23218 -6.08016,7.7577 -0.0213,0.52552 -1.20388,5.1555 -2.62784,10.28883 -3.6284,13.08025 -3.51449,16.66667 0.52936,16.66667 2.28256,0 5.58085,-2.68998 11.54017,-9.41176 4.58928,-5.17647 10.65107,-10.58866 13.47064,-12.0271 l 5.1265,-2.61534 -0.058,-18.30623 c -0.0725,-22.87352 -0.9877,-27.58821 -7.15983,-36.88693 -6.85976,-10.33467 -9.78581,-17.44756 -11.65033,-28.32063 -2.43167,-14.1804 -0.38386,-19.8754 11.72758,-32.61451 5.32443,-5.60037 10.0743,-11.75037 10.55526,-13.66667 1.2707,-5.062872 -0.31442,-9.805293 -4.10818,-12.291067 -4.09694,-2.684421 -13.69413,-2.710173 -16.3604,-0.04389 -2.35801,2.358016 -1.19498,6.451793 1.5353,5.404091 3.00293,-1.152336 3.95857,1.910076 1.68082,5.386354 -2.75681,4.207422 -10.38244,6.749862 -14.16821,4.723782 -4.22152,-2.25929 -7.98336,-9.366132 -7.98896,-15.092667 -0.008,-8.607788 8.9072,-21.951033 18.96852,-28.388564 4.20304,-2.689279 6.66268,-3.182203 15.87877,-3.182203 10.70595,0 11.0381,0.100227 18.16608,5.481911 10.22664,7.721188 15.4482,18.883492 15.47955,33.091135 0.0267,12.067058 -2.43517,18.171878 -12.30869,30.523508 -8.73099,10.92231 -11.4411,19.00704 -10.21362,30.46903 0.51123,4.77376 1.73702,10.6122 2.72396,12.97431 1.62818,3.89677 8.64795,11.08909 16.6861,17.09621 3.61473,2.7014 2.56542,3.33107 18.78957,-11.27516 7.94099,-7.14908 12.55184,-10.36095 14.87385,-10.36095 3.69592,0 9.34162,4.33018 22.16468,17 4.63876,4.58334 8.89352,8.33334 9.455,8.33334 0.56148,0 3.06496,-2.25 5.56328,-5 2.49834,-2.75 9.68755,-9.91491 15.97606,-15.92202 12.1366,-11.59352 14.97744,-12.59509 19.08618,-6.72902 2.60804,3.7235 17.07311,19.74262 26.87258,29.75964 l 8.1669,8.34822 0.82612,13.77159 c 0.45436,7.57437 1.27926,20.67159 1.83308,29.10492 0.55384,8.43333 1.00698,30.46983 1.00698,48.96999 v 33.63665 l -10.0906,10.36335 c -5.54984,5.69984 -11.6157,12.46334 -13.47968,15.03001 -5.33356,7.34416 -11.61703,20.61719 -12.56415,26.54016 -1.00991,6.31563 -4.03539,9.72809 -5.94677,6.70744 -0.66622,-1.05285 -1.2205,-2.89283 -1.23172,-4.08885 -0.0783,-8.33354 -11.4554,-28.45958 -24.02059,-42.49208 l -5.3726,-6 -5.47181,6 c -8.69527,9.53461 -16.30532,20.9397 -23.8476,35.74009 -5.02763,9.86583 -7.54578,13.5314 -8.9306,13 -1.06076,-0.40705 -2.14686,-0.74009 -2.41356,-0.74009 -0.26671,0 -2.74736,-4.30544 -5.51256,-9.56763 -8.83007,-16.80367 -35.04295,-41.95703 -47.5459,-45.62412 -5.0299,-1.47525 -6.55681,-1.28804 -15.69806,1.92485 -5.56942,1.9575 -12.31942,3.97052 -15,4.4734 -2.68059,0.50288 -4.8738,1.26442 -4.8738,1.69231 0,0.42789 2.07602,3.07589 4.6134,5.88447 8.32366,9.21329 11.03761,25.30394 6.63093,39.31392 -4.14973,13.1931 -13.94105,24.96557 -15.80367,19.00134 z m -2.94066,-51.77154 c -2.81447,-7.26509 -16.92895,-6.5813 -17.4524,-4.74367 -1.35303,4.75 3.08582,8.32099 2.34272,10.10371 -2.40476,5.76909 -4.73232,1.8813 -7.03999,10.32858 -0.56669,2.0744 3.1429,2.92996 5.44133,3.69928 29.00968,9.71002 21.71024,-6.47632 16.70834,-19.3879 z m -29.26004,4.15741 c 0.40188,-0.65024 -0.16272,-1.92371 -1.25464,-2.82993 -1.09192,-0.90622 -1.98532,-3.62087 -1.98532,-6.03255 0,-9.34353 15.48017,-15.74797 31.07688,-12.85711 6.97376,1.29259 8.8685,1.08651 19.05972,-2.07297 15.25798,-4.73029 20.53006,-10.1404 20.53006,-21.06755 0,-3.43642 1.1727,-5.70812 4.8396,-9.37501 l 4.8396,-4.8396 -0.88333,-10.88655 c -0.83304,-10.2669 -0.69031,-11.14814 2.50788,-15.48305 3.83963,-5.20432 6.01123,-11.90627 6.02215,-18.58548 0.007,-3.71313 -1.13599,-5.59516 -6.23742,-10.27879 -6.71573,-6.1657 -10.65994,-6.84433 -16.71514,-2.87596 -4.27287,2.8003 -12.79654,11.67038 -15.42647,16.05343 -2.07577,3.45947 -8.28361,6.2874 -13.84279,6.30593 -2.23806,0.008 -8.71136,12.06762 -15.12448,28.17784 -1.64289,4.12706 -4.4035,8.92018 -6.13469,10.65136 -2.72341,2.72342 -2.84289,3.20631 -0.88659,3.58306 1.24358,0.23949 4.52596,-1.10363 7.2942,-2.9847 2.76826,-1.88106 5.7939,-3.42012 6.72366,-3.42012 0.92977,0 1.69156,-0.45 1.69288,-1 10e-4,-0.55 2.62398,-2.65617 5.82817,-4.6804 7.67051,-4.84577 12.83611,-12.38106 12.83611,-18.7246 0,-4.32368 0.39562,-4.92833 3.22458,-4.92833 2.22292,0 4.08672,1.39496 6,4.49071 3.66606,5.93181 3.56362,6.62916 -1.85493,12.62685 C 534.08792,289.48796 519.12904,300 516.85824,300 c -0.40689,0 -3.01647,1.55776 -5.79903,3.46168 -2.78257,1.90393 -9.5861,5.74873 -15.11898,8.54401 -13.58818,6.86491 -20.7393,15.38866 -23.78196,28.34678 -1.96726,8.3782 -1.89238,15.26358 0.17506,16.09782 2.87175,1.15878 12.80758,0.93975 13.5733,-0.29921 z m -92.61468,-8.95512 c 6.99293,-3.72688 10.65517,-5.98533 12.74977,-7.86263 1.73279,-1.55301 9.57392,-5.5103 12.95828,-6.53984 3.92127,-1.19285 2.61389,-3.28182 -3,-4.79349 -10.65681,-2.86959 -4.18465,-6.39112 7.34649,-3.99727 4.15263,0.86208 10.64934,1.1392 14.99108,0.63946 8.0141,-0.92246 30.00556,-8.18592 30.77354,-10.16406 0.24445,-0.62964 1.14445,-1.15126 2,-1.15918 2.32633,-0.0215 18.05417,-11.31708 22.15796,-15.91363 3.8366,-4.29728 4.63936,-5.72663 10.14972,-18.07199 7.11912,-15.94961 8.58222,-21.85417 8.55928,-34.54206 -0.0188,-10.42931 -0.47167,-12.87032 -3.23835,-17.45794 -1.76904,-2.93333 -4.87371,-8.21857 -6.89927,-11.74498 -4.83773,-8.42224 -16.92296,-17.45266 -27.88968,-20.83994 -5.85913,-1.80969 -14.33422,-2.88081 -27.21196,-3.43916 -13.61489,-0.59029 -21.86801,-1.68177 -30.33877,-4.01232 -13.65127,-3.75584 -18.24661,-6.7136 -18.79211,-12.09542 -0.39092,-3.85679 3.34938,-10.40026 4.49751,-7.86818 0.33252,0.73334 1.2058,2.23334 1.94063,3.33334 1.16072,1.73754 1.52241,1.68328 2.7561,-0.41348 6.7235,-11.42715 23.13176,-20.91986 36.16022,-20.91986 9.55061,0 10.75136,-3.07672 2.10897,-5.40388 -7.71663,-2.07786 -18.73125,0.25608 -32.60387,6.9086 -8.50864,4.08027 -12.25237,6.81774 -16.6991,12.21064 -3.15246,3.82323 -6.27627,7.34006 -6.94182,7.81518 -1.43948,1.02762 -4.79672,10.28841 -4.76213,13.13613 0.0628,5.17179 11.27233,13.32035 18.33511,13.32835 2.41974,0.003 6.21248,0.94249 8.42829,2.08833 4.81961,2.49232 20.61943,1.72032 34.66099,-1.69356 8.68305,-2.11109 13.17784,-1.80353 13.17784,0.90171 0,0.75634 -1.10607,1.37517 -2.45794,1.37517 -1.35186,0 -5.70364,1.11669 -9.67061,2.48152 -6.83371,2.35115 -27.33033,4.94003 -34.53812,4.36244 -14.15043,-1.13393 -32,-9.79571 -32,-15.52848 0,-1.73696 -0.6,-3.52892 -1.33333,-3.98215 -3.55635,-2.19794 -0.7035,-11.57192 5.65604,-18.58474 1.28917,-1.42162 2.34396,-3.00628 2.34396,-3.5215 0,-0.5152 2.4,-3.84106 5.33333,-7.39081 2.93333,-3.54973 5.33333,-7.09736 5.33333,-7.88361 0,-1.9111 -7.98342,-9.32244 -11.33333,-10.5212 -7.52772,-2.69379 -14.51701,-3.09344 -20.20501,-1.15535 -5.45172,1.85759 -9.3491,5.6646 -21.6851,21.18239 -5.18398,6.52105 -7.26388,16.80457 -5.27474,26.0796 1.85846,8.66573 6.92993,12.57468 17.83152,13.74401 12.87466,1.38099 13.71157,1.76477 19.3197,8.85959 5.04538,6.38288 5.34696,7.27254 5.34696,15.77317 0,10.22356 2.24682,15.93911 7.6981,19.58273 5.14896,3.44155 16.19674,8.50239 18.56065,8.50239 3.91119,0 20.28756,-5.58173 21.83033,-7.44067 0.86392,-1.04097 2.28164,-1.89266 3.15048,-1.89266 2.7819,0 9.9936,-6.8756 13.94151,-13.29178 7.0764,-11.5006 22.96883,-18.41033 32.48929,-14.12574 10.71307,4.82129 16.43458,13.62452 15.01362,23.10022 -1.30255,8.68598 -3.03363,11.67223 -8.19223,14.13219 -5.73069,2.73277 -9.04173,2.74447 -16.92089,0.0597 -5.81355,-1.98084 -6.23752,-2.4383 -6.23752,-6.73029 0,-3.28452 1.02709,-5.55688 3.58188,-7.92456 3.75318,-3.47835 8.12534,-3.76504 7.22736,-0.47392 -2.05808,7.54283 1.1423,10.29915 4.39284,3.78332 3.18613,-6.38676 2.65554,-9.85096 -2.1249,-13.87344 -3.58369,-3.01548 -5.07313,-3.45067 -9.4272,-2.75441 -7.65726,1.22444 -10.84544,3.91141 -18.14744,15.29458 C 436.65165,257.81743 426.12629,264 407.07711,264 c -7.81559,0 -11.1668,-0.67617 -16.33775,-3.29649 -10.07847,-5.10715 -17.07872,-16.65935 -18.37753,-30.32763 -0.4795,-5.04601 -1.5649,-8.38468 -3.20982,-9.87331 -1.36694,-1.23706 -2.48534,-3.0351 -2.48534,-3.99564 0,-2.21049 -5.29611,-5.1316 -6.58216,-3.63045 -0.5294,0.61793 -0.70146,6.07352 -0.38235,12.12352 0.51173,9.70193 0.87823,11 3.10569,11 1.97571,0 2.52548,0.97209 2.52548,4.46549 0,2.45603 0.39608,9.15114 0.88018,14.87802 0.85837,10.15444 0.80994,10.39414 -1.95362,9.67145 -1.98338,-0.51867 -3.06301,-0.0188 -3.5976,1.66549 -0.42009,1.32359 -1.59846,2.72683 -2.61862,3.1183 -1.33175,0.51104 -1.57086,1.76777 -0.84787,4.4565 0.81227,3.02072 1.76073,3.74475 4.90557,3.74475 3.05571,0 3.99283,0.66449 4.33431,3.07339 0.23963,1.69037 -0.23212,3.87805 -1.04833,4.86153 -1.97054,2.37433 4.25542,11.68068 12.53704,18.73995 7.56625,6.44948 8.0563,9.30388 0.99777,5.81158 -11.38447,-5.63258 -26.91547,-24.78633 -29.14748,-35.9464 -2.9304,-14.65197 -7.15503,-17.79238 -14.71357,-10.93744 -8.22066,7.45544 -10.7748,13.31603 -10.99304,25.22402 -0.19464,10.61922 -0.1176,10.89465 4.02233,14.37816 3.17084,2.66809 5.46987,3.47784 9.24229,3.25525 5.64751,-0.33323 8.6728,1.91207 10.80062,8.01592 1.09506,3.14131 0.80034,5.07004 -1.53338,10.03483 -1.58894,3.38034 -2.57052,6.97601 -2.18126,7.99038 0.69657,1.81524 11.39056,6.11184 15.48552,6.22174 1.15269,0.0309 5.09581,3.05553 8.76248,6.72133 6.47938,6.47784 6.83405,6.64129 12.62528,5.81828 3.27722,-0.46575 8.67722,-2.29569 12,-4.06656 z m 68.53234,-3.79565 c -0.26404,-7.91412 -6.05098,-12.63806 -15.2259,-12.42907 -4.16955,0.0949 -7.11234,0.81665 -7.50524,1.84056 -1.57311,4.09945 14.36248,16.81937 20.24018,16.15588 2.20052,-0.2484 2.63595,-1.2216 2.49096,-5.56737 z m 151.4873,-23.73364 C 613.29959,309.95 612.61373,286.7 611.7874,268 c -0.82633,-18.7 -1.6196,-42.4 -1.76281,-52.66667 -0.40554,-29.0724 -0.60962,-32.66666 -1.85474,-32.66666 -9.74545,7.66484 -16.3394,14.49817 -25.8854,23.61784 l 0.84532,9.19108 c 0.46494,5.05509 0.93363,30.79108 1.04154,57.19108 0.10786,26.4 0.5635,49.00888 1.01244,50.24194 0.87802,2.41162 21.95557,14.08372 25.81625,14.29627 2.11231,0.11627 2.33127,-1.545 2.31159,-17.53821 z m 69.94196,-27.33334 c -0.41115,-24.75 -1.38419,-50.4 -2.16232,-57 -0.77814,-6.6 -1.58538,-22.09338 -1.79386,-34.42974 -0.20849,-12.33635 -0.70757,-22.75823 -1.10905,-23.15972 -0.87157,-0.87156 -8.00809,6.02202 -20.01676,19.33534 l -8.79083,9.74588 0.65472,9.58746 c 0.3601,5.27309 1.6162,31.48745 2.79138,58.25412 1.17516,26.76666 2.64706,49.6346 3.27089,50.81764 0.62785,1.19065 3.50224,2.4686 6.43815,2.86238 5.00114,0.67079 7.05121,1.50028 16.79746,6.79655 2.2,1.19552 4.15024,2.17736 4.33388,2.18188 0.18363,0.004 -0.003,-20.24179 -0.41366,-44.99179 z M 519.09344,217 c 2.25989,-4.74475 7.02277,-10.33333 8.80657,-10.33333 1.7266,0 5.74274,-9.2705 4.93172,-11.38396 -0.3934,-1.02519 -0.12666,-2.22772 0.59263,-2.6723 0.7696,-0.47565 0.95128,-3.6486 0.44141,-7.70937 -0.64288,-5.12009 -2.22692,-8.72875 -6.13809,-13.98329 -2.89939,-3.89524 -6.07429,-7.39027 -7.05535,-7.76674 -0.98106,-0.37648 -3.33368,-3.0266 -5.22804,-5.88917 C 512.64125,153.02617 512,150.46761 512,143.51937 c 0,-8.21676 -0.21308,-8.76284 -5.66667,-14.52273 -6.89114,-7.2782 -8.11826,-7.73799 -16.4383,-6.15931 -10.86943,2.0624 -12.67031,1.04982 -24.19171,-13.60225 -4.49739,-5.71945 -8.77997,-9.616212 -12.32537,-11.214965 -5.86436,-2.644458 -5.29324,-2.771828 -22.20002,4.950965 -1.55214,0.70899 -4.17537,3.78055 -5.82942,6.82567 -1.65404,3.04512 -4.46188,8.22819 -6.23966,11.51793 -2.0936,3.87417 -3.09313,7.63194 -2.83725,10.66667 0.34516,4.09342 0.8072,4.63932 3.6574,4.32122 1.79429,-0.20025 4.21301,-1.22444 5.37495,-2.27598 1.16193,-1.05154 6.47906,-2.58936 11.81585,-3.41739 8.19696,-1.2718 10.37877,-1.18494 14.05503,0.55955 5.21849,2.47634 7.49184,6.94628 7.49184,14.73073 0,7.82108 2.76342,10.16764 7.72241,6.55749 9.29829,-6.76914 25.90247,-9.27262 35.32041,-5.32542 6.06827,2.5433 8.18311,10.31008 7.03544,25.83769 -2.52728,34.19325 -2.66558,31.25064 1.82708,38.87024 2.25207,3.81949 4.09466,7.51813 4.09466,8.2192 0,2.75724 2.46932,1.05105 4.42677,-3.05868 z M 492,189.12713 c 0,-3.66962 4.00724,-11.17596 7.10609,-13.31109 1.90891,-1.31525 2.57451,-18.42537 0.87626,-22.52532 -1.1994,-2.8956 -2.61859,-3.78103 -7.00295,-4.36909 -3.02428,-0.40564 -6.54241,-0.17895 -7.81807,0.50376 -1.27564,0.6827 -3.51017,1.24128 -4.96562,1.24128 -3.23131,0 -10.58244,4.05192 -11.45994,6.31668 -0.35161,0.90752 0.80174,3.20492 2.563,5.10536 1.76126,1.90042 3.58707,5.20717 4.05734,7.34832 0.47028,2.14114 1.99906,4.69429 3.39732,5.67366 1.39824,0.97938 3.47357,4.4203 4.61184,7.6465 4.13478,11.71922 8.63473,15.03889 8.63473,6.36994 z m 87.63968,0.62048 c 0.49065,-1.47194 -3.53279,-3.63229 -4.66191,-2.50317 -0.35229,0.35231 -0.2661,1.61632 0.19155,2.80893 0.87799,2.28799 3.66943,2.09707 4.47036,-0.30576 z M 437.06667,182.4 c 2.48976,-2.48976 1.94792,-6.4 -0.88686,-6.4 -2.74572,0 -9.51314,4.81135 -9.51314,6.76344 0,1.80944 8.52502,1.51153 10.4,-0.36344 z m 24.26666,-17.76633 c 0,-3.73547 -0.6573,-4.94958 -3.20381,-5.91776 C 456.36743,158.04596 454.50913,156.8238 454,156 c -1.72279,-2.78753 -7.48032,-4.00601 -14.84115,-3.14089 -6.15272,0.72312 -8.33084,1.77178 -13.57696,6.53666 -7.32873,6.65646 -6.47806,9.28858 1.50746,4.66438 4.06528,-2.3541 7.41697,-3.19063 12.36306,-3.08566 7.71151,0.16366 16.20258,3.24166 17.37566,6.29864 1.53704,4.00547 4.50526,2.26651 4.50526,-2.63946 z"
         id="path3485"
         sodipodi:nodetypes="ssssssscsssssssssssssssssssssssssssssssscsssssscsssssssssssssssssssssssssssssssssssssssssssssssssssscssssssssssscssssssssssssssscsscssssscssssssssssssssssssscssssssscsscccsssssssssssssscssssssssssssssssscsscsssssssssssssssssssssssssscsscsssssssssssssssssssssssssssssssscssssssssssssssssssssssccccsssssssscssscsssssssscsssscsssssssssscsssssssssssssssscssssssssssssssssssssssscssssssssssssscssssssssssscssssscssssssssssscssssssssssssssssssssssssssssssscssssssscccsscsssssssssssssssssssssssssscssssssssssssssssssssssssscssssssssscsssscsssssssssssssssscccsssssssssssssssssssssssssssscssssssssssssssssssssssscsssssssssscsssssssssssssssscssscsssscscssssssssssssssssssssssssscsscssscssssscssssssssssssssssssssssssssssssssssssscssssssssssssssssssssssssssssssssssssssssssssssssssssssssssssssssssssssssssccssssscsssscsssssccsssssssssssssssssssssssssssssssssssssssssssssssssssssssss" />
    </g>
    <path
       style="fill:#000000;stroke:#ffffff;stroke-width:0.132583"
       d="m 577.27588,191.78319 c -0.946,-0.30242 -1.58262,-1.27208 -1.82815,-2.78454 -0.18315,-1.12825 0.0198,-1.62446 0.72549,-1.77396 1.13064,-0.23953 3.39255,0.90787 3.9368,1.99702 0.17949,0.35919 0.18152,0.61579 0.008,1.02232 -0.33673,0.78928 -1.0214,1.41454 -1.72686,1.57701 -0.30846,0.071 -0.8301,0.0533 -1.11537,-0.0378 z"
       id="path4136" />
    <path
       style="fill:#000000;stroke:#ffffff;stroke-width:0.00441942;stroke-dasharray:none;stroke-opacity:1"
       d="m 577.46518,191.73514 c -1.00025,-0.21028 -1.71953,-1.28327 -1.94989,-2.90875 -0.13143,-0.92742 0.0711,-1.37182 0.68835,-1.51056 0.83356,-0.18736 2.53911,0.52449 3.40762,1.42224 0.40382,0.41742 0.52104,0.639 0.52366,0.98981 0.005,0.6564 -0.77119,1.63744 -1.5227,1.92482 -0.27736,0.10606 -0.84173,0.14662 -1.14704,0.0824 z"
       id="path4202" />
    <path
       style="fill:#000000;stroke:#ffffff;stroke-width:0;stroke-dasharray:none;stroke-opacity:1"
       d="m 577.39657,185.39506 c 1.86974,0.44472 3.6816,2.11962 5.20266,4.80932 1.65185,2.92102 1.04459,4.08274 -1.90765,3.64948 -2.28649,-0.33554 -5.59726,-1.90364 -6.75662,-3.20016 -0.7977,-0.89204 -0.84173,-2.2837 -0.11558,-3.64238 0.59239,-1.1082 1.04291,-1.43742 2.20307,-1.60982 0.70044,-0.104 0.959,-0.104 1.3743,-0.006 z"
       id="path4204"
       inkscape:transform-center-x="-0.33844912"
       inkscape:transform-center-y="0.35352232" />
  </g>
</svg>
